<?xml version="1.0" encoding="utf-8"?>
<!-- Generator: Adobe Illustrator 27.5.0, SVG Export Plug-In . SVG Version: 6.00 Build 0)  -->
<svg version="1.1" xmlns="http://www.w3.org/2000/svg" xmlns:xlink="http://www.w3.org/1999/xlink" x="0px" y="0px"
	 viewBox="0 0 500 500" style="enable-background:new 0 0 500 500;" xml:space="preserve">
<g id="BACKGROUND">
	<rect style="fill:#FFFFFF;" width="500" height="500"/>
</g>
<g id="OBJECTS">
	<g>
		<g>
			<path style="fill:#DFF1FD;" d="M241.116,198.78c0.473-1.33,0.732-2.761,0.732-4.254c0-6.873-5.458-12.468-12.275-12.696
				c-1.546-6.299-7.227-10.973-14.002-10.973c-0.377,0-0.75,0.019-1.119,0.048c-1.241-1.018-2.708-1.771-4.313-2.174
				c-0.794-3.974-3.594-7.221-7.3-8.646c0.156-1.099,0.242-2.221,0.242-3.363c0-13.1-10.619-23.719-23.719-23.719
				c-12.688,0-23.049,9.962-23.687,22.492c-8.626,1.015-15.319,8.346-15.319,17.245c0,0.387,0.017,0.771,0.042,1.152
				c-4.71,0.604-8.352,4.618-8.352,9.492c0,3.707,2.11,6.916,5.191,8.508c-0.129,0.628-0.198,1.278-0.198,1.944
				c0,1.76,0.483,3.404,1.311,4.821h-0.202c-3.642,0-6.621,2.979-6.621,6.621l0,0c0,3.641,2.979,6.621,6.621,6.621h101.711
				c3.642,0,6.621-2.979,6.621-6.621l0,0C246.479,202.066,244.161,199.373,241.116,198.78z"/>
			<path style="fill:#DFF1FD;" d="M286.99,180.051c-0.36-1.014-0.558-2.104-0.558-3.242c0-5.238,4.159-9.501,9.355-9.675
				c1.178-4.8,5.507-8.363,10.671-8.363c0.287,0,0.571,0.015,0.853,0.036c0.946-0.776,2.063-1.35,3.287-1.657
				c0.605-3.028,2.739-5.503,5.563-6.589c-0.119-0.838-0.184-1.692-0.184-2.563c0-9.983,8.093-18.076,18.076-18.076
				c9.669,0,17.565,7.592,18.052,17.14c6.574,0.774,11.674,6.361,11.674,13.142c0,0.295-0.013,0.588-0.032,0.878
				c3.589,0.46,6.365,3.519,6.365,7.233c0,2.825-1.608,5.271-3.956,6.484c0.099,0.478,0.151,0.974,0.151,1.481
				c0,1.341-0.368,2.594-0.999,3.674h0.154c2.775,0,5.046,2.271,5.046,5.046l0,0c0,2.775-2.271,5.046-5.046,5.046h-77.513
				c-2.775,0-5.046-2.271-5.046-5.046l0,0C282.903,182.555,284.67,180.502,286.99,180.051z"/>
			<path style="fill:#DFF1FD;" d="M235.172,108.027c-0.257-0.725-0.399-1.504-0.399-2.317c0-3.745,2.973-6.793,6.688-6.917
				c0.842-3.432,3.938-5.978,7.629-5.978c0.205,0,0.408,0.01,0.61,0.026c0.676-0.555,1.475-0.965,2.35-1.185
				c0.433-2.165,1.958-3.934,3.977-4.711c-0.085-0.599-0.132-1.21-0.132-1.832c0-7.137,5.786-12.923,12.923-12.923
				c6.913,0,12.558,5.428,12.906,12.254c4.7,0.553,8.346,4.547,8.346,9.396c0,0.211-0.009,0.42-0.023,0.628
				c2.566,0.329,4.55,2.516,4.55,5.171c0,2.02-1.15,3.768-2.828,4.636c0.07,0.342,0.108,0.696,0.108,1.059
				c0,0.959-0.263,1.854-0.714,2.627h0.11c1.984,0,3.607,1.623,3.607,3.607l0,0c0,1.984-1.623,3.607-3.607,3.607h-55.415
				c-1.984,0-3.607-1.623-3.607-3.607l0,0C232.25,109.818,233.513,108.35,235.172,108.027z"/>
			<path style="fill:#DFF1FD;" d="M317.144,264.174c-0.36-1.014-0.558-2.104-0.558-3.242c0-5.238,4.159-9.502,9.355-9.675
				c1.178-4.8,5.508-8.363,10.671-8.363c0.287,0,0.571,0.014,0.853,0.036c0.946-0.776,2.063-1.35,3.287-1.657
				c0.605-3.028,2.739-5.503,5.563-6.589c-0.119-0.838-0.184-1.692-0.184-2.563c0-9.983,8.093-18.076,18.076-18.076
				c9.669,0,17.565,7.592,18.052,17.14c6.574,0.774,11.674,6.361,11.674,13.142c0,0.295-0.013,0.587-0.032,0.878
				c3.589,0.46,6.365,3.519,6.365,7.233c0,2.825-1.608,5.271-3.956,6.484c0.099,0.478,0.151,0.974,0.151,1.481
				c0,1.341-0.368,2.594-0.999,3.674h0.154c2.775,0,5.046,2.271,5.046,5.046l0,0c0,2.775-2.271,5.046-5.046,5.046h-77.513
				c-2.775,0-5.046-2.271-5.046-5.046l0,0C313.057,266.678,314.823,264.625,317.144,264.174z"/>
			<path style="fill:#DFF1FD;" d="M61.523,298.831c-0.36-1.014-0.558-2.104-0.558-3.242c0-5.238,4.159-9.501,9.355-9.675
				c1.178-4.8,5.507-8.362,10.671-8.362c0.287,0,0.571,0.014,0.853,0.036c0.946-0.776,2.063-1.35,3.287-1.657
				c0.605-3.028,2.739-5.503,5.563-6.589c-0.119-0.837-0.184-1.692-0.184-2.563c0-9.983,8.093-18.076,18.076-18.076
				c9.669,0,17.565,7.592,18.052,17.141c6.574,0.774,11.674,6.36,11.674,13.142c0,0.295-0.013,0.587-0.032,0.878
				c3.589,0.46,6.365,3.519,6.365,7.233c0,2.825-1.608,5.271-3.956,6.484c0.099,0.478,0.151,0.974,0.151,1.481
				c0,1.341-0.368,2.594-0.999,3.674h0.154c2.775,0,5.046,2.271,5.046,5.046v0c0,2.775-2.271,5.046-5.046,5.046H62.482
				c-2.775,0-5.046-2.271-5.046-5.046v0C57.437,301.335,59.203,299.283,61.523,298.831z"/>
		</g>
		<ellipse style="fill:#C6E6FD;" cx="250" cy="366.624" rx="220.073" ry="35.411"/>
		<g>
			<g>
				
					<linearGradient id="SVGID_1_" gradientUnits="userSpaceOnUse" x1="377.816" y1="178.4763" x2="405.8914" y2="178.4763" gradientTransform="matrix(0.986 0.1669 -0.1669 0.986 45.2737 -72.8597)">
					<stop  offset="0.191" style="stop-color:#47A2E9"/>
					<stop  offset="0.6581" style="stop-color:#8ABCF7"/>
				</linearGradient>
				<path style="fill:url(#SVGID_1_);" d="M394.639,194.048c0,0-6.65-24.147-5.419-34.791c1.23-10.644,7.071-7.252,8.177,0.688
					c1.106,7.94,7.655,3.771,2.827-7.79c-4.828-11.561,6.69-19.473,8.897-12.472c2.208,7.001-7.463,31.569-3.843,32.879
					c3.62,1.31,3.927-11.343,7.828-10.875c3.901,0.468,4.379,12.83-2.928,21.665c-7.307,8.834-7.336,15.317-10.337,16.712
					C396.839,201.459,394.639,194.048,394.639,194.048z"/>
				<path style="fill:none;stroke:#4089C1;stroke-width:1.8488;stroke-linecap:round;stroke-miterlimit:10;" d="M397.924,191.73
					c0,0-1.083-10.13,0.623-14.365c1.707-4.235,3.946-12.621,3.946-12.621"/>
				<path style="fill:none;stroke:#4089C1;stroke-width:1.8488;stroke-linecap:round;stroke-miterlimit:10;" d="M398.155,178.429
					c0,0-3.505-6.437-3.032-9.231"/>
				<path style="fill:none;stroke:#4089C1;stroke-width:1.8488;stroke-linecap:round;stroke-miterlimit:10;" d="M397.503,182.279
					c0.136,0.463,12.936-6.341,13.865-10.33"/>
			</g>
			<g>
				
					<linearGradient id="SVGID_00000114782914890428972190000006049482337428980397_" gradientUnits="userSpaceOnUse" x1="385.003" y1="266.6837" x2="359.3825" y2="221.4439" gradientTransform="matrix(0.8701 0.4928 -0.4928 0.8701 194.5913 -187.8004)">
					<stop  offset="0.2435" style="stop-color:#49687E"/>
					<stop  offset="1" style="stop-color:#DFF1FD"/>
				</linearGradient>
				<path style="fill:url(#SVGID_00000114782914890428972190000006049482337428980397_);" d="M383.292,225.983
					c0,0,2.162-18.264,12.597-30.327c10.435-12.063,17.052-13.674,17.052-13.674s6.159,15.18-6.519,31.546
					C393.744,229.893,376.882,243.036,383.292,225.983z"/>
				<path style="fill:none;stroke:#B2C0CA;stroke-width:0.9244;stroke-linecap:round;stroke-miterlimit:10;" d="M382.306,233.532
					c0,0,21.005-29.638,27.493-47.191"/>
				<path style="fill:none;stroke:#B2C0CA;stroke-width:0.9244;stroke-linecap:round;stroke-miterlimit:10;" d="M384.301,230.661
					c0,0,7.686-3.16,8.89-4.382"/>
				<path style="fill:none;stroke:#B2C0CA;stroke-width:0.9244;stroke-linecap:round;stroke-miterlimit:10;" d="M388.624,209.73
					c-1.447,3.232,1.234,12.637,1.234,12.637s8.187-0.145,9.29-1.416"/>
				<path style="fill:none;stroke:#B2C0CA;stroke-width:0.9244;stroke-linecap:round;stroke-miterlimit:10;" d="M395.195,214
					c0,0,5.668-0.367,8.659-1.358"/>
				<path style="fill:none;stroke:#B2C0CA;stroke-width:0.9244;stroke-linecap:round;stroke-miterlimit:10;" d="M399.526,206.354
					c0,0,8.771,0.49,10.868-1.645"/>
				<path style="fill:none;stroke:#B2C0CA;stroke-width:0.9244;stroke-linecap:round;stroke-miterlimit:10;" d="M397.357,210.183
					c0,0-3.086-9.746-1.357-12.348"/>
				<path style="fill:none;stroke:#B2C0CA;stroke-width:0.9244;stroke-linecap:round;stroke-miterlimit:10;" d="M403.654,199.484
					c0,0,7.1-0.109,8.81-2.043"/>
				<path style="fill:none;stroke:#B2C0CA;stroke-width:0.9244;stroke-linecap:round;stroke-miterlimit:10;" d="M405.708,195.535
					c0,0-1.918-4.173-1.227-5.308"/>
			</g>
			<g>
				
					<linearGradient id="SVGID_00000010308591369153051770000013378355287206196663_" gradientUnits="userSpaceOnUse" x1="381.071" y1="221.6161" x2="374.7766" y2="179.0169" gradientTransform="matrix(0.9893 0.1462 -0.1462 0.9893 45.6294 -63.5208)">
					<stop  offset="0.2435" style="stop-color:#49687E"/>
					<stop  offset="1" style="stop-color:#DFF1FD"/>
				</linearGradient>
				<path style="fill:url(#SVGID_00000010308591369153051770000013378355287206196663_);" d="M384.036,205.995
					c0,0-3.32-12.958,0.599-23.876c3.919-10.919,7.986-13.746,7.986-13.746s8.157,8.685,3.843,23.111
					C392.151,205.909,384.156,219.244,384.036,205.995z"/>
				<path style="fill:none;stroke:#B2C0CA;stroke-width:0.9244;stroke-linecap:round;stroke-miterlimit:10;" d="M385.345,211.375
					c0,0,6.484-25.612,6.286-39.221"/>
				<path style="fill:none;stroke:#B2C0CA;stroke-width:0.9244;stroke-linecap:round;stroke-miterlimit:10;" d="M385.946,208.905
					c0,0,4.387-4.158,4.883-5.302"/>
				<path style="fill:none;stroke:#B2C0CA;stroke-width:0.9244;stroke-linecap:round;stroke-miterlimit:10;" d="M383.394,193.571
					c-0.135,2.572,4.149,8.25,4.149,8.25s5.516-2.244,5.932-3.395"/>
				<path style="fill:none;stroke:#B2C0CA;stroke-width:0.9244;stroke-linecap:round;stroke-miterlimit:10;" d="M388.971,194.746
					c0,0,3.75-1.734,5.519-3.191"/>
				<path style="fill:none;stroke:#B2C0CA;stroke-width:0.9244;stroke-linecap:round;stroke-miterlimit:10;" d="M389.906,188.423
					c0,0,6.079-1.966,6.942-3.964"/>
				<path style="fill:none;stroke:#B2C0CA;stroke-width:0.9244;stroke-linecap:round;stroke-miterlimit:10;" d="M389.438,191.59
					c0,0-4.648-5.804-4.156-8.022"/>
				<path style="fill:none;stroke:#B2C0CA;stroke-width:0.9244;stroke-linecap:round;stroke-miterlimit:10;" d="M390.906,182.681
					c0,0,4.788-1.935,5.442-3.695"/>
				<path style="fill:none;stroke:#B2C0CA;stroke-width:0.9244;stroke-linecap:round;stroke-miterlimit:10;" d="M391.265,179.463
					c0,0-2.395-2.329-2.224-3.28"/>
			</g>
			<g>
				
					<linearGradient id="SVGID_00000104683287326635561180000007581818557468543920_" gradientUnits="userSpaceOnUse" x1="356.8588" y1="248.4501" x2="408.6446" y2="248.4501">
					<stop  offset="0.191" style="stop-color:#47A2E9"/>
					<stop  offset="0.6581" style="stop-color:#8ABCF7"/>
				</linearGradient>
				<path style="fill:url(#SVGID_00000104683287326635561180000007581818557468543920_);" d="M377.491,297.099
					c0,0-19.527-41.866-20.567-61.601c-1.04-19.736,10.626-15.365,15.082-1.266c4.456,14.099,15.082,4.501,2.742-15.038
					c-12.34-19.539,6.17-37.473,12.34-25.421c6.17,12.052-3.853,59.708,3.134,60.976c6.987,1.267,3.648-21.837,10.887-22.187
					c7.239-0.349,11.914,21.985,1.346,40.3c-10.568,18.316-8.625,30.113-13.653,33.574
					C383.774,309.899,377.491,297.099,377.491,297.099z"/>
				<path style="fill:none;stroke:#4089C1;stroke-width:1.8488;stroke-linecap:round;stroke-miterlimit:10;" d="M382.752,291.871
					c0,0-5.089-18.089-3.29-26.316c1.8-8.227,3.29-24.166,3.29-24.166"/>
				<path style="fill:none;stroke:#4089C1;stroke-width:1.8488;stroke-linecap:round;stroke-miterlimit:10;" d="M379.077,267.612
					c0,0-8.356-10.627-8.356-15.854"/>
				<path style="fill:none;stroke:#4089C1;stroke-width:1.8488;stroke-linecap:round;stroke-miterlimit:10;" d="M379.077,274.814
					c0.389,0.8,21.572-15.515,22.034-23.056"/>
			</g>
			<g>
				
					<linearGradient id="SVGID_00000133500908604943077540000009941015457306872962_" gradientUnits="userSpaceOnUse" x1="396.3983" y1="346.5963" x2="396.3983" y2="254.2501">
					<stop  offset="0.2435" style="stop-color:#49687E"/>
					<stop  offset="1" style="stop-color:#DFF1FD"/>
				</linearGradient>
				<path style="fill:url(#SVGID_00000133500908604943077540000009941015457306872962_);" d="M388.964,335.73
					c0,0-10.966-26.12-6.136-50.209c4.83-24.089,12.476-31.271,12.476-31.271s19.777,15.67,15.207,47.229
					C405.941,333.038,393.317,363.452,388.964,335.73z"/>
				<path style="fill:none;stroke:#B2C0CA;stroke-width:1.8488;stroke-linecap:round;stroke-miterlimit:10;" d="M393.372,346.596
					c0,0,5.656-55.668,1.028-84.119"/>
				<path style="fill:none;stroke:#B2C0CA;stroke-width:1.8488;stroke-linecap:round;stroke-miterlimit:10;" d="M393.867,341.235
					c0,0,7.904-10.07,8.589-12.62"/>
				<path style="fill:none;stroke:#B2C0CA;stroke-width:1.8488;stroke-linecap:round;stroke-miterlimit:10;" d="M383.774,309.899
					c0.514,5.43,11.247,16.001,11.247,16.001s10.863-6.409,11.377-8.95"/>
				<path style="fill:none;stroke:#B2C0CA;stroke-width:1.8488;stroke-linecap:round;stroke-miterlimit:10;" d="M395.822,310.634
					c0,0,7.319-4.794,10.576-8.393"/>
				<path style="fill:none;stroke:#B2C0CA;stroke-width:1.8488;stroke-linecap:round;stroke-miterlimit:10;" d="M395.822,297.099
					c0,0,12.128-6,13.318-10.455"/>
				<path style="fill:none;stroke:#B2C0CA;stroke-width:1.8488;stroke-linecap:round;stroke-miterlimit:10;" d="M395.822,303.877
					c0,0-11.534-10.721-11.191-15.52"/>
				<path style="fill:none;stroke:#B2C0CA;stroke-width:1.8488;stroke-linecap:round;stroke-miterlimit:10;" d="M396.141,284.758
					c0,0,9.433-5.536,10.257-9.426"/>
				<path style="fill:none;stroke:#B2C0CA;stroke-width:1.8488;stroke-linecap:round;stroke-miterlimit:10;" d="M395.897,277.905
					c0,0-5.738-4.137-5.674-6.183"/>
			</g>
			<g>
				
					<linearGradient id="SVGID_00000079466717254873765800000013836068113327131556_" gradientUnits="userSpaceOnUse" x1="459.4251" y1="347.1726" x2="434.7669" y2="262.2367" gradientTransform="matrix(0.9603 0.2788 -0.2788 0.9603 79.5727 -121.1407)">
					<stop  offset="0.2435" style="stop-color:#49687E"/>
					<stop  offset="1" style="stop-color:#DFF1FD"/>
				</linearGradient>
				<path style="fill:url(#SVGID_00000079466717254873765800000013836068113327131556_);" d="M406.306,328.38
					c0,0-3.249-28.142,8.106-49.929s20.7-26.553,20.7-26.553s14.624,20.563,1.436,49.596
					C423.36,330.527,402.758,356.216,406.306,328.38z"/>
				<path style="fill:none;stroke:#B2C0CA;stroke-width:1.8488;stroke-linecap:round;stroke-miterlimit:10;" d="M407.51,340.044
					c0,0,20.952-51.883,24.44-80.497"/>
				<path style="fill:none;stroke:#B2C0CA;stroke-width:1.8488;stroke-linecap:round;stroke-miterlimit:10;" d="M409.48,335.033
					c0,0,10.398-7.467,11.767-9.725"/>
				<path style="fill:none;stroke:#B2C0CA;stroke-width:1.8488;stroke-linecap:round;stroke-miterlimit:10;" d="M408.524,302.126
					c-1.02,5.358,6.34,18.502,6.34,18.502s12.219-3.126,13.421-5.423"/>
				<path style="fill:none;stroke:#B2C0CA;stroke-width:1.8488;stroke-linecap:round;stroke-miterlimit:10;" d="M419.889,306.191
					c0,0,8.366-2.563,12.496-5.112"/>
				<path style="fill:none;stroke:#B2C0CA;stroke-width:1.8488;stroke-linecap:round;stroke-miterlimit:10;" d="M423.663,293.192
					c0,0,13.32-2.381,15.705-6.327"/>
				<path style="fill:none;stroke:#B2C0CA;stroke-width:1.8488;stroke-linecap:round;stroke-miterlimit:10;" d="M421.773,299.702
					c0,0-8.088-13.511-6.421-18.025"/>
				<path style="fill:none;stroke:#B2C0CA;stroke-width:1.8488;stroke-linecap:round;stroke-miterlimit:10;" d="M427.409,281.43
					c0,0,10.603-2.687,12.479-6.192"/>
				<path style="fill:none;stroke:#B2C0CA;stroke-width:1.8488;stroke-linecap:round;stroke-miterlimit:10;" d="M429.086,274.781
					c0,0-4.357-5.573-3.725-7.52"/>
			</g>
		</g>
		<g>
			<g>
				
					<linearGradient id="SVGID_00000050632705871028516470000009670272289042586500_" gradientUnits="userSpaceOnUse" x1="77.9169" y1="440.5923" x2="148.4895" y2="384.8838" gradientTransform="matrix(0.6196 -0.7849 0.7849 0.6196 -227.3419 114.7985)">
					<stop  offset="0.2435" style="stop-color:#49687E"/>
					<stop  offset="1" style="stop-color:#DFF1FD"/>
				</linearGradient>
				<path style="fill:url(#SVGID_00000050632705871028516470000009670272289042586500_);" d="M202.717,321.243
					c0,0-41.117-11.412-65.089-39.605c-23.973-28.193-25.329-43.936-25.329-43.936s36.986-8.758,70.032,26.099
					C215.378,298.659,239.555,341.969,202.717,321.243z"/>
				<path style="fill:none;stroke:#B2C0CA;stroke-width:1.8488;stroke-linecap:round;stroke-miterlimit:10;" d="M219.678,326.173
					c0,0-60.538-58.641-98.495-79.723"/>
				<path style="fill:none;stroke:#B2C0CA;stroke-width:1.8488;stroke-linecap:round;stroke-miterlimit:10;" d="M213.801,320.584
					c0,0-4.53-18.743-6.905-21.934"/>
				<path style="fill:none;stroke:#B2C0CA;stroke-width:1.8488;stroke-linecap:round;stroke-miterlimit:10;" d="M167.332,303.271
					c6.9,4.46,29.414,1.636,29.414,1.636s2.561-18.824,0.037-21.803"/>
				<path style="fill:none;stroke:#B2C0CA;stroke-width:1.8488;stroke-linecap:round;stroke-miterlimit:10;" d="M179.446,289.712
					c0,0,1.163-13.128-0.053-20.337"/>
				<path style="fill:none;stroke:#B2C0CA;stroke-width:1.8488;stroke-linecap:round;stroke-miterlimit:10;" d="M163.443,277.08
					c0,0,4.225-19.939,0.068-25.503"/>
				<path style="fill:none;stroke:#B2C0CA;stroke-width:1.8488;stroke-linecap:round;stroke-miterlimit:10;" d="M171.458,283.406
					c0,0-23.44,3.631-28.794-1.253"/>
				<path style="fill:none;stroke:#B2C0CA;stroke-width:1.8488;stroke-linecap:round;stroke-miterlimit:10;" d="M149.149,265.186
					c0,0,2.259-16.32-1.571-20.925"/>
				<path style="fill:none;stroke:#B2C0CA;stroke-width:1.8488;stroke-linecap:round;stroke-miterlimit:10;" d="M140.82,259.078
					c0,0-10.247,2.923-12.606,0.938"/>
			</g>
			<g>
				
					<linearGradient id="SVGID_00000140713701205792985790000005265040037034783388_" gradientUnits="userSpaceOnUse" x1="75.6909" y1="355.1879" x2="119.1536" y2="320.8794" gradientTransform="matrix(0.6196 -0.7849 0.7849 0.6196 -227.3419 114.7985)">
					<stop  offset="0.2435" style="stop-color:#49687E"/>
					<stop  offset="1" style="stop-color:#DFF1FD"/>
				</linearGradient>
				<path style="fill:url(#SVGID_00000140713701205792985790000005265040037034783388_);" d="M120.49,272.144
					c0,0-25.322-7.028-40.086-24.391c-14.764-17.363-15.599-27.058-15.599-27.058s22.778-5.394,43.13,16.073
					S143.177,284.908,120.49,272.144z"/>
				<path style="fill:none;stroke:#B2C0CA;stroke-width:1.8488;stroke-linecap:round;stroke-miterlimit:10;" d="M130.936,275.18
					c0,0-37.283-36.115-60.659-49.098"/>
				<path style="fill:none;stroke:#B2C0CA;stroke-width:1.8488;stroke-linecap:round;stroke-miterlimit:10;" d="M127.316,271.738
					c0,0-2.79-11.543-4.252-13.508"/>
				<path style="fill:none;stroke:#B2C0CA;stroke-width:1.8488;stroke-linecap:round;stroke-miterlimit:10;" d="M98.698,261.076
					c4.249,2.747,18.115,1.007,18.115,1.007s1.577-11.593,0.023-13.428"/>
				<path style="fill:none;stroke:#B2C0CA;stroke-width:1.8488;stroke-linecap:round;stroke-miterlimit:10;" d="M106.158,252.725
					c0,0,0.716-8.085-0.033-12.525"/>
				<path style="fill:none;stroke:#B2C0CA;stroke-width:1.8488;stroke-linecap:round;stroke-miterlimit:10;" d="M96.303,244.946
					c0,0,2.602-12.28,0.042-15.706"/>
				<path style="fill:none;stroke:#B2C0CA;stroke-width:1.8488;stroke-linecap:round;stroke-miterlimit:10;" d="M101.239,248.842
					c0,0-14.436,2.236-17.733-0.771"/>
				<path style="fill:none;stroke:#B2C0CA;stroke-width:1.8488;stroke-linecap:round;stroke-miterlimit:10;" d="M87.5,237.621
					c0,0,1.391-10.051-0.968-12.887"/>
				<path style="fill:none;stroke:#B2C0CA;stroke-width:1.8488;stroke-linecap:round;stroke-miterlimit:10;" d="M82.37,233.859
					c0,0-6.311,1.8-7.764,0.578"/>
			</g>
			<g>
				
					<linearGradient id="SVGID_00000096025726396440586470000003876455576610652339_" gradientUnits="userSpaceOnUse" x1="175.8286" y1="386.1908" x2="206.9296" y2="313.1235" gradientTransform="matrix(0.9201 -0.3916 0.3916 0.9201 -207.8459 -30.7843)">
					<stop  offset="0.2435" style="stop-color:#49687E"/>
					<stop  offset="1" style="stop-color:#DFF1FD"/>
				</linearGradient>
				<path style="fill:url(#SVGID_00000096025726396440586470000003876455576610652339_);" d="M112.475,248.137
					c0,0-18.85-18.311-23.479-40.627c-4.629-22.316-0.712-31.224-0.712-31.224s22.575,6.19,30.139,34.788
					S126.262,270.218,112.475,248.137z"/>
				<path style="fill:none;stroke:#B2C0CA;stroke-width:1.8488;stroke-linecap:round;stroke-miterlimit:10;" d="M120.185,255.811
					c0,0-15.397-49.57-29.684-72.173"/>
				<path style="fill:none;stroke:#B2C0CA;stroke-width:1.8488;stroke-linecap:round;stroke-miterlimit:10;" d="M118.66,251.055
					c0,0,3.087-11.467,2.746-13.893"/>
				<path style="fill:none;stroke:#B2C0CA;stroke-width:1.8488;stroke-linecap:round;stroke-miterlimit:10;" d="M98.66,227.975
					c2.412,4.448,15.413,9.571,15.413,9.571s6.944-9.417,6.459-11.772"/>
				<path style="fill:none;stroke:#B2C0CA;stroke-width:1.8488;stroke-linecap:round;stroke-miterlimit:10;" d="M109.211,224.225
					c0,0,4.506-6.751,5.977-11.006"/>
				<path style="fill:none;stroke:#B2C0CA;stroke-width:1.8488;stroke-linecap:round;stroke-miterlimit:10;" d="M104.293,212.672
					c0,0,8.172-9.528,7.569-13.762"/>
				<path style="fill:none;stroke:#B2C0CA;stroke-width:1.8488;stroke-linecap:round;stroke-miterlimit:10;" d="M106.756,218.458
					c0,0-13.74-4.96-15.191-9.181"/>
				<path style="fill:none;stroke:#B2C0CA;stroke-width:1.8488;stroke-linecap:round;stroke-miterlimit:10;" d="M100.081,202.023
					c0,0,6.04-8.153,5.331-11.772"/>
				<path style="fill:none;stroke:#B2C0CA;stroke-width:1.8488;stroke-linecap:round;stroke-miterlimit:10;" d="M97.384,196.262
					c0,0-6.401-1.446-7.09-3.216"/>
			</g>
			<g>
				
					<linearGradient id="SVGID_00000057146394267030966410000007008814869785124266_" gradientUnits="userSpaceOnUse" x1="101.1407" y1="241.3891" x2="166.805" y2="241.3891">
					<stop  offset="0.191" style="stop-color:#47A2E9"/>
					<stop  offset="0.6581" style="stop-color:#8ABCF7"/>
				</linearGradient>
				<path style="fill:url(#SVGID_00000057146394267030966410000007008814869785124266_);" d="M127.302,303.075
					c0,0-24.761-53.086-26.079-78.11s13.474-19.482,19.125-1.605c5.65,17.877,19.125,5.707,3.477-19.068
					c-15.647-24.775,7.824-47.515,15.647-32.233c7.824,15.282-4.885,75.71,3.974,77.317c8.859,1.607,4.626-27.69,13.805-28.133
					c9.179-0.443,15.107,27.877,1.706,51.101c-13.4,23.224-10.936,38.183-17.312,42.572
					C135.27,319.306,127.302,303.075,127.302,303.075z"/>
				<path style="fill:none;stroke:#4089C1;stroke-width:1.8488;stroke-linecap:round;stroke-miterlimit:10;" d="M133.973,296.447
					c0,0-6.453-22.937-4.171-33.368c2.282-10.432,4.171-30.643,4.171-30.643"/>
				<path style="fill:none;stroke:#4089C1;stroke-width:1.8488;stroke-linecap:round;stroke-miterlimit:10;" d="M129.313,265.686
					c0,0-10.595-13.475-10.595-20.103"/>
				<path style="fill:none;stroke:#4089C1;stroke-width:1.8488;stroke-linecap:round;stroke-miterlimit:10;" d="M129.313,274.818
					c0.493,1.014,27.354-19.673,27.938-29.234"/>
			</g>
			<g>
				
					<linearGradient id="SVGID_00000088133923269615001070000003379675057401887896_" gradientUnits="userSpaceOnUse" x1="20.7242" y1="374.3342" x2="68.4421" y2="366.6421" gradientTransform="matrix(0.1591 -0.9873 0.9873 0.1591 -221.5506 300.4682)">
					<stop  offset="0.2435" style="stop-color:#49687E"/>
					<stop  offset="1" style="stop-color:#DFF1FD"/>
				</linearGradient>
				<path style="fill:url(#SVGID_00000088133923269615001070000003379675057401887896_);" d="M202.433,335.85
					c0,0-41.472,10.046-76.136-2.911s-43.512-26.049-43.512-26.049s28.044-25.654,73.879-11.292
					C202.499,309.959,244.701,336.022,202.433,335.85z"/>
				<path style="fill:none;stroke:#B2C0CA;stroke-width:1.8488;stroke-linecap:round;stroke-miterlimit:10;" d="M219.649,331.9
					c0,0-81.427-21.755-124.845-21.694"/>
				<path style="fill:none;stroke:#B2C0CA;stroke-width:1.8488;stroke-linecap:round;stroke-miterlimit:10;" d="M211.794,329.879
					c0,0-13.08-14.167-16.709-15.798"/>
				<path style="fill:none;stroke:#B2C0CA;stroke-width:1.8488;stroke-linecap:round;stroke-miterlimit:10;" d="M162.776,337.376
					c8.198,0.537,26.49-12.889,26.49-12.889s-6.927-17.69-10.581-19.064"/>
				<path style="fill:none;stroke:#B2C0CA;stroke-width:1.8488;stroke-linecap:round;stroke-miterlimit:10;" d="M166.757,319.635
					c0,0-5.375-12.033-9.947-17.739"/>
				<path style="fill:none;stroke:#B2C0CA;stroke-width:1.8488;stroke-linecap:round;stroke-miterlimit:10;" d="M146.629,316.391
					c0,0-6.016-19.474-12.355-22.311"/>
				<path style="fill:none;stroke:#B2C0CA;stroke-width:1.8488;stroke-linecap:round;stroke-miterlimit:10;" d="M156.71,318.016
					c0,0-18.708,14.582-25.762,12.922"/>
				<path style="fill:none;stroke:#B2C0CA;stroke-width:1.8488;stroke-linecap:round;stroke-miterlimit:10;" d="M128.353,312.959
					c0,0-5.971-15.355-11.558-17.513"/>
				<path style="fill:none;stroke:#B2C0CA;stroke-width:1.8488;stroke-linecap:round;stroke-miterlimit:10;" d="M118.104,311.678
					c0,0-7.528,7.542-10.555,6.956"/>
			</g>
		</g>
		<g>
			<path style="fill:#0D2933;" d="M126.066,323.707c-1.118-1.275-2.241-2.279-3.479-3.273c-1.228-0.978-2.524-1.879-3.895-2.689
				c-1.369-0.812-2.816-1.531-4.345-2.144c-0.379-0.159-0.764-0.303-1.162-0.436l-0.592-0.204c-0.221-0.07-0.328-0.128-0.709-0.216
				c-1.291-0.364-2.653-0.404-3.877-0.258c-1.235,0.146-2.353,0.482-3.326,0.896c-0.986,0.412-1.868,0.895-2.66,1.412
				c-1.607,1.032-2.916,2.183-4.135,3.364c-1.207,1.184-2.289,2.415-3.289,3.688c-0.501,0.636-0.984,1.28-1.453,1.936l-0.695,0.999
				c-0.172,0.257-0.325,0.485-0.501,0.76c-1.973,2.413-3.938,4.832-5.878,7.271c-2.001,2.495-4.001,4.991-5.97,7.511
				c-1.985,2.507-3.945,5.035-5.898,7.568c-0.763,0.99-1.505,1.996-2.261,2.991v11.847c1.304,0.028,2.611-0.485,3.527-1.553
				c2.084-2.428,4.144-4.876,6.182-7.342c2.037-2.466,4.067-4.938,6.072-7.43c2.021-2.479,4.011-4.983,6-7.487
				c1.999-2.496,3.973-5.013,5.938-7.537l0.188-0.242l0.177-0.284l0.467-0.748l0.538-0.809c0.368-0.538,0.75-1.069,1.141-1.588
				c0.787-1.033,1.606-2.02,2.444-2.919c0.84-0.882,1.714-1.693,2.545-2.268c0.824-0.594,1.614-0.938,2.032-1.001
				c0.217-0.037,0.345-0.059,0.463-0.028c-0.021-0.024,0.214,0.049,0.343,0.083l0.452,0.123c0.302,0.074,0.603,0.177,0.909,0.268
				c1.22,0.364,2.462,0.789,3.715,1.256c1.254,0.463,2.527,0.95,3.81,1.458c1.27,0.495,2.608,1.063,3.855,1.497l0.256,0.09
				c0.934,0.323,2.011,0.149,2.807-0.549C126.984,326.686,127.102,324.888,126.066,323.707z"/>
			<path style="fill:#0D2933;" d="M207.836,317.053c-0.091-0.534-0.243-1.055-0.44-1.55c-0.396-0.986-0.991-1.812-1.613-2.47
				c-0.623-0.666-1.285-1.176-1.937-1.602c-0.656-0.434-1.302-0.75-1.944-1.038c-0.317-0.135-0.643-0.264-0.954-0.372l-0.477-0.168
				l-0.618-0.164c-1.658-0.428-3.454-0.453-5.067-0.144c-1.628,0.295-3.076,0.877-4.343,1.563c-1.28,0.682-2.39,1.484-3.386,2.34
				c-1.004,0.852-1.898,1.753-2.734,2.689c-0.417,0.469-0.816,0.948-1.204,1.442l-0.575,0.757c-0.202,0.28-0.348,0.488-0.605,0.887
				l-0.313,0.485l-0.2,0.617c-1.847,5.691-3.681,11.386-5.461,17.098l-2.4,7.812v14.848c0.018,0.007,0.032,0.017,0.05,0.024
				c2.347,0.84,4.932-0.381,5.772-2.729c1.009-2.818,1.992-5.644,2.961-8.475l2.858-8.508c1.811-5.462,3.571-10.941,5.318-16.423
				l0.344-0.487c0.252-0.344,0.516-0.685,0.788-1.013c0.546-0.655,1.121-1.273,1.708-1.805c1.172-1.066,2.374-1.849,3.263-2.064
				c0.45-0.128,0.81-0.155,1.205-0.093l0.151,0.019l0.279,0.065c0.195,0.039,0.363,0.095,0.543,0.135
				c0.342,0.087,0.673,0.176,0.938,0.254c0.566,0.157,0.856,0.267,1.058,0.132c0.095-0.056,0.218-0.146,0.381-0.137
				c0.071,0.004,0.168,0.034,0.249,0.086l0.129,0.085c0.022,0.015,0.045,0.027,0.07,0.037c0.013,0,0.025,0.007,0.043,0.003
				c0.023-0.016,0.018,0.024,0.087-0.085c-0.692,1.376-0.137,3.052,1.238,3.743c1.376,0.692,3.052,0.137,3.743-1.238l0.281-0.447
				l0.193-0.338c0.121-0.223,0.225-0.449,0.308-0.684c0.172-0.467,0.304-0.966,0.348-1.488
				C207.922,318.134,207.914,317.591,207.836,317.053z"/>
			<path style="opacity:0.59;fill:#7FC8FD;" d="M80.271,339.485c-4.581,0-8.33,3.748-8.33,8.33v9.453l17.783-17.783H80.271z"/>
			<path style="opacity:0.59;fill:#7FC8FD;" d="M104.729,339.485h-8.487l-24.301,24.301v3.3c0,3.591,2.306,6.66,5.508,7.824
				l33.067-33.067C109.014,340.388,106.973,339.485,104.729,339.485z"/>
			<path style="opacity:0.59;fill:#F0F8FF;" d="M113.059,347.815c0-2.338-0.979-4.455-2.544-5.971L77.449,374.91
				c0.884,0.321,1.831,0.506,2.822,0.506h10.832l21.957-21.957V347.815z"/>
			<path style="opacity:0.59;fill:#7FC8FD;" d="M91.103,375.416h13.627c4.582,0,8.33-3.749,8.33-8.33v-13.627L91.103,375.416z"/>
			<polygon style="opacity:0.59;fill:#F0F8FF;" points="89.724,339.485 71.941,357.268 71.941,363.786 96.242,339.485 			"/>
			<path style="opacity:0.59;fill:#7FC8FD;" d="M142.303,339.485c-4.582,0-8.33,3.748-8.33,8.33v9.903l18.233-18.233H142.303z"/>
			<polygon style="opacity:0.59;fill:#F0F8FF;" points="152.206,339.485 133.973,357.718 133.973,362.663 157.151,339.485 			"/>
			<path style="opacity:0.59;fill:#7FC8FD;" d="M166.761,339.485h-9.61l-23.178,23.178v4.423c0,3.407,2.074,6.35,5.021,7.637
				l33.2-33.2C170.732,340.257,168.834,339.485,166.761,339.485z"/>
			<path style="opacity:0.59;fill:#F0F8FF;" d="M175.091,347.815c0-2.508-1.128-4.762-2.897-6.292l-33.2,33.2
				c1.016,0.444,2.134,0.693,3.309,0.693h8.584l24.204-24.204V347.815z"/>
			<path style="opacity:0.59;fill:#7FC8FD;" d="M150.887,375.416h15.874c4.581,0,8.33-3.749,8.33-8.33v-15.874L150.887,375.416z"/>
			<path style="fill:none;stroke:#174859;stroke-width:5.5533;stroke-miterlimit:10;" d="M104.729,375.416H80.271
				c-4.581,0-8.33-3.749-8.33-8.33v-19.271c0-4.582,3.748-8.33,8.33-8.33h24.458c4.582,0,8.33,3.748,8.33,8.33v19.271
				C113.059,371.667,109.311,375.416,104.729,375.416z"/>
			<path style="fill:none;stroke:#174859;stroke-width:5.5533;stroke-miterlimit:10;" d="M166.761,375.416h-24.458
				c-4.582,0-8.33-3.749-8.33-8.33v-19.271c0-4.582,3.748-8.33,8.33-8.33h24.458c4.581,0,8.33,3.748,8.33,8.33v19.271
				C175.091,371.667,171.343,375.416,166.761,375.416z"/>
			<path style="fill:none;stroke:#174859;stroke-width:5.5533;stroke-miterlimit:10;" d="M113.059,355.296
				c0,0,11.094-11.999,20.914,0"/>
		</g>
		<g>
			<g>
				<path style="fill:#FF5D7B;" d="M324.113,323.957c2.319,1.792,5.979,3.858,10.91,4.346c2.353,0.233,4.58-1.117,5.459-3.311
					l2.152-5.373c-11.783,0.977-17.998-7.207-17.998-7.207l-2.164,5.405C321.598,320.001,322.251,322.518,324.113,323.957z"/>
				
					<rect x="308.911" y="273.476" transform="matrix(0.3718 -0.9283 0.9283 0.3718 -38.3842 497.517)" style="fill:#F4B031;" width="78.958" height="7.285"/>
				
					<rect x="315.455" y="276.331" transform="matrix(0.3718 -0.9283 0.9283 0.3718 -36.705 505.2402)" style="fill:#E8A423;" width="78.958" height="6.815"/>
				
					<rect x="303.075" y="272.137" transform="matrix(0.3718 -0.9283 0.9283 0.3718 -39.8809 490.6315)" style="fill:#F4C43E;" width="78.958" height="5.287"/>
				<path style="fill:#FACFC9;" d="M354.777,237.149l15.289-12.103l2.709,19.311C372.775,244.356,363.152,246.578,354.777,237.149z"
					/>
				<path style="fill:#174859;" d="M364.337,229.58c2.404,1.562,4.739,2.396,6.76,2.821l-1.032-7.356L364.337,229.58z"/>
				<path style="fill:#174859;" d="M323.639,314.904c0,0,6.215,8.184,17.998,7.207l3.488-8.71
					c-11.782,0.977-17.998-7.207-17.998-7.207L323.639,314.904z"/>
			</g>
			<g>
				<path style="fill:#FF5D7B;" d="M330.086,336.393c1.777,2.33,4.779,5.272,9.417,7.018c2.213,0.833,4.713,0.105,6.129-1.788
					l3.467-4.634c-11.635-2.101-15.523-11.614-15.523-11.614l-3.488,4.662C328.678,331.921,328.658,334.522,330.086,336.393z"/>
				
					<rect x="326.164" y="293.777" transform="matrix(0.5991 -0.8007 0.8007 0.5991 -91.5437 412.0204)" style="fill:#F4B031;" width="78.958" height="7.285"/>
				
					<rect x="331.809" y="298.235" transform="matrix(0.5991 -0.8007 0.8007 0.5991 -92.6635 418.2277)" style="fill:#E8A423;" width="78.958" height="6.815"/>
				
					<rect x="321.131" y="291.01" transform="matrix(0.5991 -0.8007 0.8007 0.5991 -90.5464 406.4804)" style="fill:#F4C43E;" width="78.958" height="5.287"/>
				<path style="fill:#FACFC9;" d="M382.143,260.459l17.897-7.741l-2.374,19.355C397.667,272.073,387.796,271.732,382.143,260.459z"
					/>
				<path style="fill:#174859;" d="M393.335,255.618c1.918,2.13,3.959,3.54,5.801,4.473l0.904-7.373L393.335,255.618z"/>
				<path style="fill:#174859;" d="M331.967,327.525c0,0,3.889,9.513,15.523,11.614l5.621-7.513
					c-11.635-2.101-15.523-11.614-15.523-11.614L331.967,327.525z"/>
			</g>
		</g>
		<g>
			<g>
				<path style="fill:#AAB9D8;" d="M442.333,339.325l-6.076,22.608c-0.561,2.086-2.726,3.334-4.812,2.773l0,0
					c-2.086-0.561-3.334-2.726-2.773-4.812l6.076-22.608c0.561-2.086,2.726-3.334,4.812-2.773l0,0
					C441.645,335.074,442.893,337.239,442.333,339.325z"/>
				<path style="fill:#B4D3F7;" d="M371.93,294.872c-19.847-5.334-40.274,6.831-44.893,27.051
					c-4.254,18.621,6.929,37.623,25.267,42.966c9.69,2.823,19.563,1.435,27.714-3.056c4.298-2.368,9.318-3.065,14.058-1.791
					l4.312,1.159c7.922,2.129,16.069-2.567,18.198-10.488l3.103-11.544c2.129-7.922-2.567-16.069-10.488-18.198l-4.313-1.159
					c-4.723-1.27-8.722-4.363-11.24-8.556C388.971,303.471,381.394,297.416,371.93,294.872z"/>
				<path style="fill:#99C5F7;" d="M357.533,293.964c2.632,0.033,5.302,0.387,7.96,1.102c8.365,2.248,15.063,7.6,19.196,14.482
					c2.225,3.706,5.76,6.44,9.934,7.562l3.813,1.025c7.002,1.882,11.152,9.083,9.27,16.085l-2.742,10.203
					c-1.882,7.002-9.083,11.152-16.085,9.27l-3.811-1.024c-4.189-1.126-8.626-0.51-12.425,1.583
					c-7.205,3.969-15.931,5.196-24.496,2.701c-10.394-3.028-18.179-11.024-21.441-20.709c2.367,13.239,12.016,24.691,25.598,28.648
					c9.69,2.823,19.563,1.435,27.714-3.056c4.298-2.368,9.318-3.064,14.058-1.791l4.312,1.159
					c7.922,2.129,16.069-2.567,18.198-10.488l3.103-11.544c2.129-7.922-2.567-16.069-10.488-18.198l-4.313-1.159
					c-4.723-1.269-8.722-4.363-11.24-8.556c-4.676-7.786-12.254-13.841-21.718-16.385
					C367.086,293.57,362.208,293.318,357.533,293.964z"/>
				<path style="fill:none;stroke:#C1DEFF;stroke-width:1.4337;stroke-linejoin:round;stroke-miterlimit:10;" d="M412.707,352.264
					l-42.54-11.434c0,0,5.234,0.143,4.153-4.19c-1.081-4.334-11.82-0.693-6.087,1.017c5.733,1.71,12.245-6.438,6.104-10.615
					c-6.141-4.177-9.951,5.411-0.994,3.523c8.957-1.888,1.857-8.46,1.857-8.46l42.539,11.434"/>
				<path style="fill:#E0EFF2;" d="M427.733,332.395l-7.584,28.215c-0.7,2.603-3.402,4.161-6.005,3.461l0,0
					c-2.603-0.7-4.161-3.402-3.461-6.005l7.584-28.215c0.7-2.603,3.402-4.161,6.005-3.461h0
					C426.875,327.089,428.433,329.792,427.733,332.395z"/>
				<path style="fill:#E0EFF2;" d="M431.572,333.427l-7.583,28.215c-0.7,2.603-3.402,4.161-6.006,3.461l0,0
					c-2.603-0.7-4.161-3.402-3.461-6.006l7.583-28.215c0.7-2.603,3.402-4.161,6.005-3.461l0,0
					C430.714,328.121,432.271,330.823,431.572,333.427z"/>
				<path style="fill:#E0EFF2;" d="M435.41,334.458l-7.583,28.215c-0.7,2.603-3.402,4.161-6.005,3.461l0,0
					c-2.603-0.7-4.161-3.402-3.461-6.005l7.583-28.215c0.7-2.603,3.402-4.161,6.006-3.461l0,0
					C434.552,329.152,436.109,331.855,435.41,334.458z"/>
				<path style="fill:#E0EFF2;" d="M439.248,335.49l-7.583,28.215c-0.7,2.603-3.402,4.161-6.005,3.461l0,0
					c-2.603-0.7-4.161-3.402-3.461-6.005l7.583-28.215c0.7-2.603,3.402-4.161,6.005-3.461l0,0
					C438.39,330.184,439.948,332.887,439.248,335.49z"/>
				<path style="fill:#AAB9D8;" d="M424.105,330.227l-8.181,30.439c-0.755,2.809-3.67,4.489-6.479,3.734l0,0
					c-2.809-0.755-4.489-3.67-3.734-6.479l8.181-30.439c0.755-2.809,3.67-4.489,6.479-3.734l0,0
					C423.18,324.503,424.86,327.419,424.105,330.227z"/>
				<path style="fill:#C1DEFF;" d="M354.564,313.201L354.564,313.201c-0.897,3.337-4.361,5.333-7.697,4.436l-3.131-0.842
					c-3.337-0.897-5.333-4.361-4.436-7.697l0,0c0.897-3.337,4.361-5.333,7.697-4.436l3.131,0.842
					C353.465,306.401,355.461,309.865,354.564,313.201z"/>
				<path style="fill:#C1DEFF;" d="M366.814,314.92L366.814,314.92c-0.68,2.529-3.306,4.043-5.835,3.363l0,0
					c-2.529-0.68-4.043-3.306-3.363-5.835l0,0c0.68-2.53,3.306-4.043,5.835-3.363l0,0
					C365.981,309.765,367.494,312.391,366.814,314.92z"/>
			</g>
			<path style="fill:#E0EFF2;" d="M440.182,334.75l-3.925,14.604c-0.561,2.086-2.726,3.334-4.812,2.773
				c-0.051-0.014-0.094-0.039-0.144-0.055c-1.028,2.018-3.372,3.125-5.641,2.515c-0.683-0.184-1.291-0.507-1.808-0.929
				c-0.659,0.105-1.347,0.081-2.03-0.103c-0.683-0.184-1.291-0.508-1.808-0.929c-0.659,0.105-1.347,0.081-2.03-0.103
				c-0.683-0.183-1.291-0.507-1.808-0.929c-0.659,0.105-1.347,0.081-2.03-0.103l0,0c-0.224-0.06-0.438-0.141-0.646-0.229
				c-1.183,0.697-2.631,0.941-4.053,0.559c-1.667-0.448-2.932-1.66-3.53-3.157c-1.003,0.257-2.036,0.42-3.088,0.461
				c-1.46,0.057-2.953-0.102-4.439-0.502l-4.312-1.159c-0.592-0.159-1.189-0.288-1.788-0.386c-3.595-0.589-7.278-0.091-10.626,1.368
				c-0.558,0.243-1.107,0.513-1.644,0.809c-2.547,1.403-5.263,2.504-8.088,3.267c-1.13,0.305-2.278,0.557-3.44,0.753
				c-2.323,0.391-4.702,0.558-7.107,0.483c-1.202-0.037-2.411-0.135-3.622-0.296c-1.817-0.241-3.64-0.622-5.457-1.151
				c-0.756-0.22-1.495-0.472-2.226-0.738c-0.186-0.068-0.371-0.137-0.555-0.207c-0.689-0.263-1.369-0.541-2.034-0.843
				c-0.036-0.016-0.073-0.03-0.108-0.047c-0.7-0.321-1.382-0.669-2.055-1.031c-0.161-0.087-0.32-0.175-0.479-0.264
				c-0.622-0.348-1.235-0.709-1.832-1.09c-0.045-0.029-0.091-0.055-0.136-0.084c-0.645-0.416-1.27-0.856-1.883-1.309
				c-0.127-0.094-0.253-0.19-0.379-0.286c-0.57-0.433-1.129-0.879-1.67-1.344c-0.037-0.032-0.076-0.062-0.113-0.094
				c-0.587-0.508-1.153-1.036-1.705-1.579c-0.088-0.087-0.175-0.175-0.262-0.263c-0.523-0.525-1.032-1.062-1.521-1.616
				c-0.02-0.023-0.042-0.045-0.062-0.069c-0.524-0.597-1.026-1.212-1.51-1.84c-0.05-0.065-0.098-0.13-0.147-0.195
				c-0.469-0.618-0.921-1.248-1.349-1.893c-0.006-0.009-0.012-0.018-0.018-0.027c-0.451-0.68-0.877-1.375-1.282-2.083
				c-0.018-0.032-0.036-0.064-0.054-0.097c-2.055-3.618-3.492-7.585-4.225-11.724c-1.535,8.564,0.145,17.117,4.225,24.302
				c0.018,0.032,0.036,0.065,0.054,0.097c0.405,0.708,0.831,1.403,1.282,2.083c0.006,0.009,0.012,0.018,0.018,0.027
				c0.429,0.646,0.88,1.275,1.349,1.893c0.049,0.065,0.097,0.13,0.147,0.195c0.484,0.628,0.986,1.243,1.51,1.84
				c0.02,0.023,0.042,0.045,0.062,0.069c0.489,0.554,0.998,1.091,1.521,1.616c0.087,0.088,0.174,0.176,0.262,0.263
				c0.552,0.542,1.118,1.071,1.705,1.579c0.037,0.032,0.076,0.062,0.113,0.094c0.542,0.465,1.1,0.911,1.67,1.344
				c0.126,0.096,0.251,0.192,0.379,0.286c0.613,0.454,1.239,0.893,1.883,1.309c0.045,0.029,0.091,0.055,0.136,0.084
				c0.597,0.382,1.21,0.743,1.832,1.09c0.159,0.089,0.318,0.177,0.479,0.264c0.673,0.362,1.355,0.71,2.055,1.031
				c0.035,0.016,0.072,0.03,0.108,0.047c0.665,0.302,1.345,0.579,2.034,0.843c0.184,0.07,0.369,0.14,0.555,0.207
				c0.731,0.266,1.47,0.517,2.226,0.738c1.817,0.529,3.64,0.911,5.457,1.151c1.211,0.16,2.42,0.258,3.622,0.296
				c2.405,0.075,4.783-0.092,7.107-0.483c1.162-0.196,2.31-0.447,3.44-0.753c2.826-0.764,5.541-1.864,8.088-3.267
				c0.537-0.296,1.086-0.566,1.644-0.809c3.347-1.459,7.03-1.957,10.626-1.368c0.599,0.098,1.196,0.227,1.788,0.386l4.312,1.159
				c1.485,0.399,2.979,0.559,4.439,0.502c1.053-0.041,2.086-0.204,3.088-0.461c0.599,1.497,1.863,2.709,3.53,3.157
				c1.422,0.382,2.871,0.138,4.053-0.559c0.208,0.089,0.422,0.169,0.646,0.229l0,0c0.683,0.184,1.372,0.208,2.03,0.103
				c0.517,0.421,1.125,0.745,1.808,0.929c0.683,0.184,1.372,0.208,2.03,0.103c0.517,0.421,1.125,0.745,1.808,0.929
				c0.683,0.184,1.371,0.208,2.03,0.103c0.517,0.421,1.125,0.745,1.808,0.929c2.27,0.61,4.614-0.496,5.641-2.515
				c0.05,0.015,0.093,0.041,0.144,0.055c2.086,0.561,4.251-0.687,4.812-2.773l6.076-22.608
				C442.835,337.458,441.882,335.537,440.182,334.75z"/>
		</g>
		<g>
			<g>
				<path style="fill:#164454;" d="M212.503,325.062c0,0,2.591-3.455,12.094-4.319c9.502-0.864,81.201,0,81.201,0
					s4.319,0.864,6.911,4.319c2.591,3.455,26.779,34.553,26.779,34.553s3.455,4.319,0,6.911c-3.455,2.591-142.533,0-142.533,0
					s-7.775,0.864-4.319-5.183C196.09,355.296,212.503,325.062,212.503,325.062z"/>
				<rect x="196.954" y="343.203" style="fill:#FFFFFF;" width="136.486" height="18.14"/>
				<path style="fill:#164454;" d="M212.503,305.194c0,0,2.591-3.455,12.094-4.319c9.502-0.864,81.201,0,81.201,0
					s4.319,0.864,6.911,4.319s26.779,34.553,26.779,34.553s3.455,4.319,0,6.911c-3.455,2.591-142.533,0-142.533,0
					s-7.775,0.864-4.319-5.183C196.09,335.428,212.503,305.194,212.503,305.194z"/>
				<g>
					<rect x="196.954" y="349.249" style="fill:#DFECF0;" width="136.486" height="0.864"/>
					<rect x="196.954" y="351.841" style="fill:#DFECF0;" width="136.486" height="0.864"/>
					<rect x="196.954" y="354.432" style="fill:#DFECF0;" width="136.486" height="0.864"/>
					<rect x="196.954" y="357.024" style="fill:#DFECF0;" width="136.486" height="0.864"/>
					<rect x="196.954" y="359.615" style="fill:#DFECF0;" width="136.486" height="0.864"/>
				</g>
			</g>
			<g>
				<path style="fill:#66A1ED;" d="M213.025,301.163c0,0,2.408-3.21,11.236-4.013c8.829-0.803,75.445,0,75.445,0
					s4.013,0.803,6.421,4.013c2.408,3.21,24.881,32.104,24.881,32.104s3.21,4.013,0,6.421c-3.21,2.408-132.43,0-132.43,0
					s-7.223,0.803-4.013-4.816C197.775,329.254,213.025,301.163,213.025,301.163z"/>
				<rect x="198.578" y="318.018" style="fill:#FFFFFF;" width="126.812" height="16.855"/>
				<path style="fill:#8CBDF7;" d="M213.025,282.703c0,0,2.408-3.21,11.236-4.013c8.829-0.803,75.445,0,75.445,0
					s4.013,0.803,6.421,4.013c2.408,3.211,24.881,32.104,24.881,32.104s3.21,4.013,0,6.421c-3.21,2.408-132.43,0-132.43,0
					s-7.223,0.803-4.013-4.816C197.775,310.794,213.025,282.703,213.025,282.703z"/>
				<g>
					<rect x="198.578" y="323.636" style="fill:#DFECF0;" width="126.812" height="0.803"/>
					<rect x="198.578" y="326.044" style="fill:#DFECF0;" width="126.812" height="0.803"/>
					<rect x="198.578" y="328.452" style="fill:#DFECF0;" width="126.812" height="0.803"/>
					<rect x="198.578" y="330.859" style="fill:#DFECF0;" width="126.812" height="0.803"/>
					<rect x="198.578" y="333.267" style="fill:#DFECF0;" width="126.812" height="0.803"/>
				</g>
			</g>
		</g>
		<g>
			<path style="fill:#FF5D7B;" d="M304.831,380.423c0.924-3.534,1.508-8.741-0.339-14.636c-0.881-2.812-3.516-4.709-6.462-4.646
				l-7.213,0.154c6.87,13.039,0.514,24.162,0.514,24.162l7.256-0.154C301.521,385.239,304.089,383.262,304.831,380.423z"/>
			
				<rect x="190.041" y="370.89" transform="matrix(0.9998 -0.0213 0.0213 0.9998 -7.9362 5.1772)" style="fill:#F4B031;" width="98.429" height="9.081"/>
			
				<rect x="189.854" y="362.396" transform="matrix(0.9998 -0.0213 0.0213 0.9998 -7.7489 5.171)" style="fill:#E8A423;" width="98.429" height="8.495"/>
			
				<rect x="190.207" y="379.969" transform="matrix(0.9998 -0.0213 0.0213 0.9998 -8.1029 5.1825)" style="fill:#F4C43E;" width="98.429" height="6.591"/>
			<path style="fill:#FACFC9;" d="M190.289,387.607l-21.344-11.632l20.83-12.53C189.774,363.445,197.018,373.399,190.289,387.607z"
				/>
			<path style="fill:#174859;" d="M176.941,380.333c0.619-3.519,0.437-6.605-0.062-9.131l-7.935,4.773L176.941,380.333z"/>
			<path style="fill:#174859;" d="M294.678,385.385c0,0,6.356-11.123-0.514-24.162l-11.694,0.249
				c6.87,13.039,0.514,24.162,0.514,24.162L294.678,385.385z"/>
		</g>
		<g>
			<g>
				<ellipse style="fill:#0F2F3B;" cx="262.01" cy="296.573" rx="44.719" ry="14.061"/>
				<ellipse style="fill:#DFECF0;" cx="262.01" cy="272.2" rx="44.719" ry="11.872"/>
				<rect x="217.291" y="272.2" style="fill:#0F2F3B;" width="89.439" height="24.373"/>
				<path style="fill:#143E4D;" d="M265.572,249.246c0,0-87.064,22.162-86.273,22.162c0.792,0,79.15,26.911,83.107,27.702
					c3.957,0.792,78.358-22.953,81.524-24.536C347.096,272.991,268.738,248.455,265.572,249.246z"/>
				<polygon style="fill:#143E4D;" points="343.93,274.574 343.93,272.2 179.299,269.034 179.299,271.408 				"/>
				<path style="fill:#174859;" d="M265.572,246.872c0,0-87.064,22.162-86.273,22.162c0.792,0,79.15,26.911,83.107,27.702
					c3.957,0.791,78.358-22.953,81.524-24.536C347.096,270.617,268.738,246.08,265.572,246.872z"/>
			</g>
			<path style="fill:#0F2F3B;" d="M261.658,269.382v3.475l-79.834-0.658c0,0-2.243,0.342-3.083,3.49
				c-0.84,3.149,0.557,17.88,0.557,17.88s-2.473,3.079-3.923-1.193s0-20.178,0-20.178s0.917-3.213,5.088-2.817
				S261.658,269.382,261.658,269.382z"/>
			<path style="fill:#0F2F3B;" d="M175.287,294.644c0,0-3.593,2.829-1.824,6.967c1.768,4.137,1.768,4.137,1.768,4.137l0.056-1.258
				l2.141,2.146l0.698-2.146l0.941,2.817c0,0,6.334-6.923-0.33-13.233C178.737,294.073,176.641,293.079,175.287,294.644z"/>
			<path style="fill:#F4C43E;" d="M269.478,270.931c0,1.048-2.582,1.897-5.766,1.897c-3.185,0-5.766-0.849-5.766-1.897
				s2.582-1.897,5.766-1.897C266.896,269.034,269.478,269.883,269.478,270.931z"/>
			<path style="fill:#F4C43E;" d="M179.353,294.073c0,1.276-1.035,2.311-2.311,2.311c-1.276,0-2.311-1.035-2.311-2.311
				c0-1.276,1.035-2.311,2.311-2.311C178.318,291.762,179.353,292.797,179.353,294.073z"/>
		</g>
		<g>
			<path style="fill:#CF2949;" d="M252.822,169.44c0,0,0.253,2.05-2.333,4.667c-2.587,2.617-3.559,12.709,8.733,9.017
				C271.514,179.433,261.909,166.184,252.822,169.44z"/>
			<path style="fill:#66A1ED;" d="M253.234,183.396c0,0,5.375-2.153,10.059-1.27c0,0,2.015,6.353-1.071,8.516
				C259.136,192.806,251.878,190.026,253.234,183.396z"/>
			<g>
				<g>
					<path style="fill:#AAB9D8;" d="M217.434,122.952l-8.855,2.157c-0.817,0.199-1.648-0.307-1.847-1.124l0,0
						c-0.199-0.817,0.307-1.648,1.124-1.847l8.855-2.157c0.817-0.199,1.648,0.307,1.847,1.124l0,0
						C218.756,121.922,218.251,122.753,217.434,122.952z"/>
					<path style="fill:#FFD96E;" d="M219.432,90.599c-1.894-7.774-9.87-12.47-17.637-10.262c-7.153,2.033-11.547,9.407-9.938,16.667
						c0.85,3.836,3.172,6.947,6.23,8.889c1.613,1.024,2.79,2.607,3.242,4.464l0.411,1.689c0.756,3.103,3.884,5.005,6.986,4.249
						l4.521-1.101c3.103-0.756,5.005-3.884,4.249-6.986l-0.412-1.689c-0.451-1.85-0.143-3.794,0.817-5.438
						C219.686,98.026,220.335,94.306,219.432,90.599z"/>
					<path style="fill:#F4C43E;" d="M217.048,85.514c0.481,0.905,0.86,1.882,1.114,2.924c0.798,3.276,0.225,6.564-1.351,9.263
						c-0.848,1.453-1.12,3.172-0.722,4.807l0.364,1.493c0.668,2.742-1.014,5.507-3.756,6.175l-3.996,0.973
						c-2.742,0.668-5.507-1.013-6.175-3.756l-0.364-1.493c-0.4-1.641-1.44-3.04-2.866-3.945c-2.703-1.717-4.756-4.466-5.507-7.857
						c-0.911-4.115,0.361-8.269,3.057-11.196c-4.076,3.286-6.18,8.723-4.989,14.1c0.85,3.836,3.172,6.947,6.23,8.889
						c1.613,1.024,2.79,2.607,3.242,4.464l0.411,1.689c0.756,3.103,3.884,5.005,6.986,4.249l4.521-1.101
						c3.103-0.756,5.005-3.884,4.249-6.986l-0.412-1.689c-0.451-1.85-0.143-3.794,0.817-5.438c1.783-3.053,2.432-6.774,1.529-10.48
						C218.97,88.702,218.143,86.989,217.048,85.514z"/>
					<path style="fill:none;stroke:#FFF8E6;stroke-width:0.5581;stroke-linejoin:round;stroke-miterlimit:10;" d="M207.472,115.261
						l-4.059-16.662c0,0,0.931,1.814,2.208,0.633c1.277-1.18-1.976-4.165-1.486-1.887s4.489,2.975,4.766,0.097
						c0.277-2.878-3.71-2.384-1.389,0.32c2.321,2.704,3.236-0.95,3.236-0.95l4.059,16.662"/>
					<path style="fill:#E0EFF2;" d="M217.067,116.672l-11.051,2.692c-1.02,0.248-2.057-0.383-2.306-1.402l0,0
						c-0.248-1.02,0.383-2.057,1.402-2.306l11.051-2.692c1.02-0.248,2.057,0.383,2.306,1.402l0,0
						C218.718,115.386,218.087,116.423,217.067,116.672z"/>
					<path style="fill:#E0EFF2;" d="M217.433,118.175l-11.051,2.692c-1.02,0.248-2.057-0.383-2.305-1.402l0,0
						c-0.248-1.02,0.383-2.057,1.402-2.306l11.051-2.692c1.02-0.248,2.057,0.383,2.305,1.402l0,0
						C219.084,116.889,218.453,117.926,217.433,118.175z"/>
					<path style="fill:#E0EFF2;" d="M217.799,119.678l-11.051,2.692c-1.02,0.248-2.057-0.383-2.306-1.402l0,0
						c-0.248-1.02,0.383-2.057,1.402-2.306l11.051-2.692c1.02-0.248,2.057,0.383,2.305,1.402l0,0
						C219.45,118.392,218.819,119.43,217.799,119.678z"/>
					<path style="fill:#E0EFF2;" d="M218.166,121.182l-11.051,2.692c-1.02,0.248-2.057-0.383-2.306-1.402l0,0
						c-0.248-1.02,0.383-2.057,1.402-2.306l11.051-2.692c1.02-0.248,2.057,0.383,2.306,1.402l0,0
						C219.816,119.896,219.185,120.933,218.166,121.182z"/>
					<path style="fill:#AAB9D8;" d="M217.128,115.027l-11.922,2.904c-1.1,0.268-2.219-0.413-2.487-1.513l0,0
						c-0.268-1.1,0.413-2.219,1.513-2.487l11.922-2.904c1.1-0.268,2.219,0.413,2.487,1.513l0,0
						C218.909,113.64,218.228,114.759,217.128,115.027z"/>
					<path style="fill:#FFE69E;" d="M209.925,88.101L209.925,88.101c-1.307,0.318-2.637-0.491-2.955-1.797l-0.299-1.226
						c-0.318-1.307,0.491-2.637,1.797-2.955l0,0c1.307-0.318,2.637,0.49,2.955,1.797l0.299,1.226
						C212.04,86.453,211.231,87.783,209.925,88.101z"/>
					<path style="fill:#FFE69E;" d="M211.631,92.605L211.631,92.605c-0.991,0.241-1.999-0.372-2.24-1.362l0,0
						c-0.241-0.991,0.372-1.999,1.363-2.24l0,0c0.991-0.241,1.999,0.372,2.24,1.363l0,0
						C213.234,91.355,212.621,92.363,211.631,92.605z"/>
				</g>
				<path style="fill:#E0EFF2;" d="M218.593,121.362l-5.72,1.393c-0.817,0.199-1.648-0.307-1.847-1.124
					c-0.005-0.02-0.004-0.04-0.008-0.06c-0.881,0.027-1.698-0.566-1.914-1.455c-0.065-0.267-0.068-0.536-0.021-0.791
					c-0.159-0.205-0.28-0.445-0.345-0.712c-0.065-0.267-0.068-0.536-0.021-0.791c-0.159-0.205-0.28-0.445-0.345-0.712
					c-0.065-0.268-0.068-0.536-0.021-0.791c-0.159-0.205-0.28-0.445-0.345-0.712l0,0c-0.021-0.088-0.034-0.176-0.043-0.264
					c-0.459-0.273-0.814-0.722-0.949-1.279c-0.159-0.653,0.018-1.312,0.417-1.796c-0.275-0.294-0.524-0.616-0.735-0.968
					c-0.293-0.488-0.518-1.027-0.66-1.609l-0.411-1.689c-0.057-0.232-0.124-0.46-0.203-0.683c-0.472-1.338-1.331-2.502-2.456-3.371
					c-0.187-0.145-0.382-0.282-0.584-0.41c-0.956-0.607-1.84-1.328-2.629-2.15c-0.316-0.329-0.617-0.673-0.901-1.033
					c-0.568-0.72-1.07-1.501-1.495-2.336c-0.212-0.417-0.405-0.848-0.577-1.292c-0.258-0.665-0.469-1.359-0.629-2.078
					c-0.066-0.299-0.119-0.599-0.165-0.898c-0.012-0.076-0.023-0.152-0.033-0.228c-0.039-0.284-0.072-0.568-0.093-0.852
					c-0.001-0.015-0.003-0.031-0.004-0.046c-0.021-0.299-0.03-0.597-0.033-0.895c-0.001-0.071,0-0.142,0-0.213
					c0.002-0.278,0.011-0.554,0.029-0.829c0.001-0.021,0.002-0.042,0.003-0.062c0.021-0.298,0.054-0.594,0.094-0.888
					c0.008-0.061,0.018-0.122,0.027-0.183c0.041-0.276,0.089-0.55,0.146-0.822c0.004-0.019,0.007-0.037,0.011-0.056
					c0.063-0.295,0.138-0.588,0.22-0.878c0.013-0.046,0.027-0.092,0.041-0.139c0.081-0.277,0.169-0.551,0.267-0.822
					c0.004-0.011,0.008-0.023,0.012-0.034c0.106-0.291,0.222-0.577,0.346-0.86c0.013-0.029,0.026-0.058,0.039-0.087
					c0.123-0.276,0.254-0.548,0.394-0.815c0.002-0.004,0.004-0.007,0.006-0.011c0.148-0.281,0.305-0.557,0.471-0.827
					c0.008-0.012,0.015-0.024,0.023-0.036c0.851-1.379,1.936-2.612,3.211-3.637c-3.211,1.079-5.816,3.253-7.505,5.991
					c-0.007,0.012-0.015,0.024-0.023,0.036c-0.166,0.271-0.323,0.546-0.471,0.828c-0.002,0.004-0.004,0.007-0.006,0.011
					c-0.14,0.267-0.271,0.539-0.394,0.815c-0.013,0.029-0.026,0.058-0.039,0.087c-0.124,0.283-0.24,0.569-0.346,0.86
					c-0.004,0.011-0.008,0.023-0.012,0.034c-0.098,0.271-0.186,0.545-0.267,0.822c-0.014,0.046-0.028,0.092-0.041,0.139
					c-0.082,0.29-0.156,0.582-0.22,0.878c-0.004,0.019-0.007,0.037-0.011,0.056c-0.057,0.272-0.105,0.546-0.146,0.822
					c-0.009,0.061-0.018,0.122-0.027,0.183c-0.04,0.294-0.073,0.59-0.095,0.888c-0.001,0.021-0.002,0.041-0.003,0.062
					c-0.018,0.275-0.027,0.552-0.029,0.83c0,0.071-0.001,0.142,0,0.213c0.002,0.297,0.011,0.595,0.033,0.895
					c0.001,0.015,0.003,0.03,0.004,0.046c0.021,0.284,0.054,0.568,0.093,0.852c0.011,0.076,0.021,0.152,0.033,0.228
					c0.046,0.299,0.099,0.599,0.165,0.898c0.159,0.719,0.37,1.413,0.628,2.078c0.172,0.444,0.365,0.875,0.577,1.292
					c0.424,0.835,0.927,1.616,1.495,2.336c0.284,0.36,0.585,0.705,0.901,1.033c0.79,0.822,1.673,1.543,2.629,2.15
					c0.202,0.128,0.396,0.265,0.584,0.41c1.125,0.87,1.984,2.034,2.456,3.371c0.079,0.223,0.146,0.451,0.203,0.683l0.411,1.689
					c0.142,0.582,0.367,1.121,0.66,1.609c0.211,0.352,0.46,0.674,0.735,0.968c-0.399,0.485-0.576,1.143-0.417,1.796
					c0.136,0.557,0.49,1.006,0.949,1.279c0.009,0.088,0.021,0.175,0.043,0.263l0,0c0.065,0.267,0.186,0.507,0.345,0.712
					c-0.047,0.255-0.044,0.524,0.021,0.791c0.065,0.268,0.186,0.507,0.345,0.712c-0.047,0.255-0.044,0.524,0.021,0.791
					c0.065,0.267,0.186,0.507,0.345,0.712c-0.047,0.255-0.044,0.524,0.021,0.791c0.217,0.889,1.033,1.482,1.914,1.455
					c0.004,0.02,0.003,0.04,0.008,0.06c0.199,0.817,1.03,1.323,1.847,1.124l8.855-2.157
					C218.165,122.774,218.643,122.089,218.593,121.362z"/>
			</g>
			<path style="fill:#FF5D7B;" d="M257.551,250.829c0,0-3.549,5.079-2.667,5.963c0.883,0.884,4.683-2.052,5.764-3.489
				c1.08-1.437-0.146-3.465-0.146-3.465L257.551,250.829z"/>
			<path style="fill:#FACFC9;" d="M255.472,223.863c0,0,0.972,12.781,1.389,14.338c0.417,1.557,0.278,12.113,0.833,13.363
				c0.556,1.25,3.056-0.695,3.056-1.528c0-0.833,1.528-7.89,1.667-9.64c0.139-1.75,2.083-11.75,2.222-14.528
				C264.778,223.091,258.667,219.217,255.472,223.863z"/>
			<path style="fill:#FF5D7B;" d="M283.815,239.704c0,0,2.651,5.601,3.856,5.272c1.205-0.328,0.54-5.084-0.172-6.735
				c-0.712-1.651-3.081-1.591-3.081-1.591L283.815,239.704z"/>
			<g>
				<path style="fill:#FACFC9;" d="M274.092,218.438c-0.049,4.592-0.032,7.545,1.464,11.779c0.703,1.99,8.547,5.773,10.067,7.571
					c1.52,1.798-0.195,2.599-2.435,2.145c-2.24-0.454-9.149-3.842-11.637-5.599c-1.993-1.407-5.699-7.08-5.645-11.931
					C265.96,217.552,270.603,215.865,274.092,218.438z"/>
			</g>
			<path style="fill:#174859;" d="M253.365,183.915c0,0-9.331-1.974-10.549-3.517c-1.218-1.544-6.733-8.751-8.508-8.624
				c-1.775,0.128-2.291,1.107-2.27,2.279c0.02,1.173,7.421,10.151,8.157,10.913c0.736,0.762,10.59,6.962,11.948,6.529
				C253.5,191.063,255.386,184.377,253.365,183.915z"/>
			<path style="fill:#FACFC9;" d="M279.136,205.831c0,0-0.971,3.216,0.145,3.792c1.116,0.576,1.682-0.064,1.682-0.064
				s1.841,1.612,2.507,0.179c0.666-1.433-0.128-4.596-2.695-5.117C280.775,204.621,279.414,204.615,279.136,205.831z"/>
			<path style="fill:#174859;" d="M263.493,190.275c0,0,8.701,3.907,9.564,5.674c0.863,1.767,4.725,9.979,6.486,10.231
				c1.761,0.252,2.473-0.596,2.702-1.746c0.229-1.15-5.101-11.493-5.658-12.394c-0.557-0.901-8.874-9.048-10.292-8.913
				C264.877,183.261,261.615,189.395,263.493,190.275z"/>
			<path style="fill:#174859;" d="M250.489,185.677c0,0,0.6,12.146,2.578,14.507c0,0,0.781,1.753,0.797,6.31
				c0.015,4.556-2.376,12.229,0.284,19.988c0,0,22.878,1.764,22.973-6.361c0.061-5.218-3.428-12.043-6.549-15.833
				c-2.674-3.247-1.301-4.419-2.176-8.407c-0.005-0.022-0.009-0.043-0.014-0.064c-0.453-2.108-0.836-11.055-1.541-12.204
				c-0.705-1.149-3.548-1.487-3.548-1.487s-2.1,6.656-4.212,6.554c-2.113-0.102-5.847-5.284-5.847-5.284
				S251.006,183.859,250.489,185.677z"/>
			<path style="fill:#FACFC9;" d="M233.921,171.999c0,0,1.262-3.667,0-4.379c-1.262-0.713-1.943,0-1.943,0s-2.052-1.94-2.883-0.317
				c-0.832,1.624-0.054,5.306,2.883,6.019C231.979,173.322,233.548,173.389,233.921,171.999z"/>
			<path style="fill:#FACFC9;" d="M257.177,183.202v-1.963c0,0-4.162-0.163-4.406-3.175c-0.244-3.012,0-1.521,0-1.521
				s-1.465-0.519-1.465-1.033c0-0.514,1.821-2.061,1.821-2.061s0.947-6.049,5.668-6.294c4.722-0.244,6.675,3.745,6.513,7.001
				c-0.163,3.256-2.524,6.268-3.5,6.431s-0.326,2.615-0.326,2.615S258.563,185.391,257.177,183.202z"/>
			<path style="fill:#FF5D7B;" d="M257.984,164.713c0,0-7.128,1.25-5.427,4.317c1.701,3.068,6.671,3.295,6.671,3.295
				s0.146,2.84,1.906,3.636c0,0,1.587,4.204-1.906,8.635c-3.492,4.431,7.112,6.249,9.081-3.863
				c1.969-10.112-1.667-13.656-4.848-14.384c-3.181-0.727-3.863,0-3.863,0S258.932,164.503,257.984,164.713z"/>
			<path style="fill:none;stroke:#174859;stroke-width:0.816;stroke-miterlimit:10;" d="M211.331,124.439
				c0,0,2.912,36.91,20.045,44.87c17.132,7.959,20.203,19.917,9.923,25.456"/>
		</g>
		<g>
			<path style="fill:#CC3853;" d="M201.668,243.327c-0.694,0.671-1.112,1.575-1.255,2.529c-0.457,3.041-1.791,11.488-2.524,11.618
				c-0.894,0.159-11.279,4.766-11.279,5.042c0,0.275,0.253,2.751,4.115,1.926c3.863-0.825,10.927-3.645,11.452-4.333
				c0.526-0.688,2.719-11.279,2.344-13.48C204.204,244.759,203.523,241.534,201.668,243.327z"/>
			<g>
				<path style="fill:#FACFC9;" d="M184.61,282.339c0,0-0.672,3.578-1.375,4.111c-0.703,0.532-2.531-0.1-2.602-1.436
					c-0.07-1.336,1.336-5.414,1.336-5.414S184.016,279.595,184.61,282.339z"/>
				<path style="fill:#5384C2;" d="M204.487,262.926c0,0-18.472-0.964-20.065,1.471c-1.594,2.435-1.406,4.999,5.719,4.78
					c7.125-0.218,14.901,0.979,15.841-1.574C206.922,265.051,204.487,262.926,204.487,262.926z"/>
				<path style="fill:#5384C2;" d="M185.728,264.22c0,0-1.226-0.432-2.043,2.284c-0.817,2.716-3.777,15.703-3.52,15.984
					c0.257,0.281,3.463,1.875,5.563,1.594c0,0,2.757-12.088,3.225-14.153C189.423,267.863,188.503,263.858,185.728,264.22z"/>
				<g>
					<g>
						<path style="fill:#FF5D7B;" d="M184.09,285.314c0,0,0.187,2.134-1.65,3.994c-1.837,1.86-10.528-3.599-10.881-6.395
							c-0.353-2.796,8.823,0.435,8.823,0.435S181.553,285.335,184.09,285.314z"/>
						<path style="fill:#E03D5B;" d="M177.822,284.371c-3.172-2.608-5.64-2.381-5.83-2.344c-0.319,0.179-0.486,0.463-0.433,0.886
							c0.328,2.595,7.832,7.48,10.38,6.683C183.273,288.511,181.004,286.986,177.822,284.371z"/>
					</g>
				</g>
			</g>
			<path style="fill:#FF5D7B;" d="M208.254,240.272c3.594-0.987,7.221,1.522,7.596,5.23c0.682,6.757,1.112,18.174-3.135,21.95
				c-6.174,5.489-13.757,3.736-13.757,3.736s2.837-23.376,2.697-26.971C201.613,243.168,203.904,241.466,208.254,240.272z"/>
			<g>
				<path style="fill:#FACFC9;" d="M193.1,286.082c0,0-0.672,3.578-1.375,4.11c-0.703,0.533-2.531-0.1-2.601-1.436
					c-0.07-1.336,1.336-5.414,1.336-5.414S192.506,283.337,193.1,286.082z"/>
				<path style="fill:#66A1ED;" d="M212.93,266.541c0,0,0.583,7.004-6.842,6.723c-7.425-0.281-13.8,0.13-13.8-1.341
					c0-1.471-1.489-4.97,6.381-5.939C206.538,265.014,212.93,266.541,212.93,266.541z"/>
				<path style="fill:#66A1ED;" d="M194.219,267.183c0,0-1.226-0.432-2.043,2.283c-0.817,2.716-3.777,15.703-3.52,15.985
					c0.257,0.281,3.463,1.875,5.563,1.594c0,0,2.757-12.088,3.225-14.153C197.913,270.826,196.993,266.821,194.219,267.183z"/>
				<g>
					<g>
						<path style="fill:#FF5D7B;" d="M192.7,289.185c0,0,0.187,2.134-1.65,3.994c-1.837,1.861-10.528-3.599-10.881-6.395
							c-0.353-2.796,8.823,0.435,8.823,0.435S190.163,289.205,192.7,289.185z"/>
						<path style="fill:#E03D5B;" d="M186.432,288.241c-3.172-2.607-5.64-2.38-5.83-2.344c-0.319,0.179-0.486,0.463-0.433,0.886
							c0.328,2.595,7.832,7.48,10.38,6.683C191.883,292.382,189.614,290.857,186.432,288.241z"/>
					</g>
				</g>
			</g>
			<path style="fill:#FACFC9;" d="M205.611,242.556l-0.911-2.241c0,0-4.826,1.746-6.503-1.579c-1.677-3.324-1.736-5.432-1.736-5.432
				s-1.727-7.344,3.548-9.814c5.275-2.47,9.357,1.176,10.682,4.968c1.325,3.792,0.029,8.326-1.01,8.965
				c-1.039,0.639,0.842,3.135,0.842,3.135S208.208,244.411,205.611,242.556z"/>
			<path style="fill:#174859;" d="M204.768,227.579c0,0-6.052,3.645-9.629,2.338c-3.576-1.307-3.232-5.158-1.582-6.19
				c1.651-1.032,2.201,0,2.201,0s1.953-1.453,2.476-0.458c0,0,5.502-2.086,6.534-1.605s1.032,0.481,1.032,0.481
				s-1.307-1.169-0.688-1.307c0.619-0.138,1.444,0.825,1.444,0.825s2.338-0.138,2.132,0.344c-0.206,0.481-1.068,0.676-1.068,0.676
				s3.244,1.525,3.635,6.477c0.39,4.952,0,5.915,0,5.915s-0.129,4.695-1.864,3.207c-1.735-1.488,0.122-3.689,0.122-4.17
				c0-0.481,0.688-2.682-0.206-3.507c-0.894-0.825-1.687,0.688-1.687,0.688s0.792,2.201,0.449,2.407
				c-0.344,0.206-1.376-0.141-1.513-0.827c-0.138-0.686-0.206-2.13-0.344-2.405c-0.138-0.275-1.376-0.825-1.513-1.169
				C204.561,228.954,204.768,227.579,204.768,227.579z"/>
			<polygon style="fill:#AAB9D8;" points="198.964,268.087 210.01,264.61 197.849,261.485 183.68,264.261 			"/>
			<path style="fill:#E03D5B;" d="M212.333,243.061c0,0-1.788,12.536-2.682,12.694c-0.894,0.159-11.279,4.767-11.279,5.042
				c0,0.275,0.253,2.751,4.115,1.926c3.862-0.825,10.927-3.645,11.452-4.333c0.526-0.688,2.719-11.279,2.344-13.48
				C215.909,242.71,212.518,241.807,212.333,243.061z"/>
			<path style="fill:#FACFC9;" d="M198.957,260.935c0,0-3.466-0.152-4.055,1.127c-0.588,1.28,0.271,2.597,2.027,2.548
				c1.756-0.049,4.055-1.612,3.849-2.162C200.572,261.898,199.542,261.072,198.957,260.935z"/>
			<polygon style="fill:#E0EFF2;" points="181.165,250.962 197.902,254.62 198.964,268.087 183.68,264.261 			"/>
		</g>
		<g>
			<path style="fill:#FACFC9;" d="M70.35,318.058l-2.113,1.841c0,0-3.102,0.078-4.187,0.388c-1.085,0.31-3.102,1.473-2.791,1.861
				c0,0-1.473,1.551-1.085,1.861c0,0,0.233,1.085,0.775,1.085c0,0,0.465,0.775,1.473,0.62c0,0,1.583-1.163,2.807-1.163
				c1.225,0,1.923,0.078,1.923,0.078s-1.783,0.351-2.326,1.106c-0.543,0.755-0.543,1.22-0.233,1.375
				c0.31,0.155,1.628-0.931,2.714-0.931c1.086,0,3.063-1.318,3.043-2.481c-0.019-1.163,2.384-2.869,3.005-3.799
				C73.975,318.969,71.478,317.074,70.35,318.058z"/>
			<path style="fill:#E8A423;" d="M108.781,310.764c0,0,2.354,8.037,3.695,8.412c1.341,0.375,5.375-10.249,5.375-10.249
				s0.894-1.37,4.172,0s-6.865,18.007-8.355,18.04c-1.49,0.033-9.547-3.866-8.94-6.842
				C105.336,317.15,106.713,310.784,108.781,310.764z"/>
			<g>
				<path style="fill:#FACFC9;" d="M95.924,375.892c0,0-0.459,3.111,0.32,4.244c0.779,1.133,1.868,0.544,2.223-0.613
					c0.355-1.157,0.32-4.421,0.32-4.421S96.791,374.497,95.924,375.892z"/>
				<g>
					<g>
						<path style="fill:#5384C2;" d="M99.155,378.664c0.478-0.185,0.998-0.226,1.48-0.049c1.55,0.568,4.479,1.616,5.594,1.839
							c1.547,0.309,4.146,1.485,4.269,2.97c0.124,1.485-9.891,0.804-11.411,0.743c-1.52-0.062-3.871,0.186-3.995-0.804
							c-0.083-0.666-0.055-2.789-0.027-4.107c0.011-0.541,0.524-0.926,1.049-0.791C97.05,378.704,98.402,378.956,99.155,378.664z"/>
					</g>
				</g>
			</g>
			<g>
				<path style="fill:#FACFC9;" d="M76.098,375.102c0,0-1.27,2.877-0.821,4.177c0.45,1.299,1.656,1.021,2.306,0
					c0.65-1.021,1.485-4.177,1.485-4.177S77.304,373.988,76.098,375.102z"/>
				<g>
					<g>
						<path style="fill:#5384C2;" d="M77.767,378.346c0.478-0.185,0.999-0.226,1.48-0.049c1.55,0.568,4.479,1.616,5.594,1.839
							c1.547,0.309,4.146,1.485,4.269,2.97c0.124,1.485-9.891,0.804-11.411,0.742c-1.52-0.062-3.871,0.186-3.995-0.804
							c-0.083-0.666-0.054-2.789-0.027-4.107c0.011-0.541,0.524-0.926,1.049-0.791C75.662,378.386,77.015,378.638,77.767,378.346z"
							/>
					</g>
				</g>
			</g>
			<g>
				<path style="fill:#E03D5B;" d="M82.296,328.982c0,0,0.89,5.693,3.243,7.852c0,0,13.598,14.96,14.302,17.847
					c0.705,2.887-4.41,21.801-4.462,22.002c-0.053,0.201,3.753,0.406,4.146-1.384c0.394-1.791,6.602-21.264,6.168-22.69
					c-0.434-1.426-11.681-18.324-11.681-18.324s0.554-5.485-0.524-7.068C92.41,325.635,82.296,328.982,82.296,328.982z"/>
				<path style="fill:#FF5D7B;" d="M93.963,327.774c0,0-11.578,0.645-11.667,2.405l2.393,29.481l-9.412,16.118
					c0,0,1.47,1.759,3.698,0.907c2.246-2.908,11.572-14.501,12.38-16.775s-1.138-22.337-1.138-22.337s3.802-2.298,3.87-4.243
					C94.154,331.386,93.963,327.774,93.963,327.774z"/>
			</g>
			<path style="fill:#ABB5F3;" d="M102.954,305.228c0,0-8.404-2.449-9.606-0.572c-1.202,1.876-9.702,23.354-8.439,25.567
				c1.263,2.213,7.757,6.005,9.367,4.81c1.61-1.195,13.9-20.126,14.584-21.882c0.684-1.756-0.933-4.907-2.467-5.837
				C104.859,306.383,102.954,305.228,102.954,305.228z"/>
			<path style="fill:#F4B031;" d="M96.398,320.285c0,0-4.529,12.232-6.931,14.466c0,0-4.853,0.53-7.82-5.119
				c0,0,5.267-12.274,5.912-14.054c0.645-1.78,4.799-10.983,4.799-10.983s0.798-3.066,10.597,0.633L96.398,320.285z"/>
			<path style="fill:#F4B031;" d="M97.546,323.071c0,0-3.393,11.396-3.271,11.961c0.122,0.565,0.717,1.649,1.913,2.541
				c1.196,0.892,8.539-17.448,8.539-17.448s4.856-6.082,4.522-7.461c-0.333-1.379-0.162-3.718-0.162-3.718s-2.434-0.46-4.397,3.016
				C102.728,315.44,97.546,323.071,97.546,323.071z"/>
			<path style="fill:#FACFC9;" d="M106.821,308.768l0.946-2.326c0,0,5.009,1.812,6.749-1.638c1.74-3.45,1.802-5.638,1.802-5.638
				s1.793-7.622-3.683-10.186c-5.475-2.564-9.711,1.22-11.087,5.156c-1.376,3.936-0.03,8.641,1.049,9.304
				c1.079,0.663-0.874,3.254-0.874,3.254S104.126,310.694,106.821,308.768z"/>
			<path style="fill:#174859;" d="M107.696,293.224c0,0,6.281,3.783,9.993,2.427c3.712-1.356,3.355-5.354,1.642-6.424
				c-1.713-1.071-2.284,0-2.284,0s-2.027-1.508-2.57-0.476c0,0-5.71-2.165-6.781-1.666c-1.071,0.5-1.071,0.5-1.071,0.5
				s1.356-1.214,0.714-1.356c-0.642-0.143-1.499,0.857-1.499,0.857s-2.427-0.143-2.213,0.357c0.214,0.5,1.108,0.702,1.108,0.702
				s-3.367,1.583-3.772,6.722c-0.405,5.139,0,6.139,0,6.139s0.134,4.873,1.935,3.329c1.8-1.544-0.127-3.829-0.127-4.328
				c0-0.5-0.714-2.784,0.214-3.64c0.928-0.857,1.75,0.714,1.75,0.714s-0.822,2.284-0.465,2.498c0.357,0.214,1.428-0.147,1.57-0.859
				c0.143-0.712,0.214-2.211,0.357-2.496c0.143-0.285,1.428-0.857,1.57-1.213C107.911,294.652,107.696,293.224,107.696,293.224z"/>
			<path style="fill:#E8A423;" d="M103.53,304.277c0,0-3.968-0.228-4.128,0.106c-0.16,0.334,1.016,2.417,1.016,2.417
				s-4.648,6.529-4.395,9.862c0.253,3.333-0.043,5.179-0.043,5.179S103.853,305.485,103.53,304.277z"/>
			<path style="fill:#E8A423;" d="M107.334,306.649c0,0,2.514,3.078,2.337,3.404c-0.176,0.326-2.553,0.596-2.553,0.596
				s-2.557,7.596-5.404,9.347c-2.847,1.751-4.168,3.075-4.168,3.075S106.166,307.097,107.334,306.649z"/>
			<path style="fill:#F4C43E;" d="M93.326,303.977c0,0-13.057,2.787-14.286,3.723s-10.616,9.987-10.616,9.987
				s1.117,4.279,4.358,3.536c3.24-0.743,6.8-7.894,8.093-7.894c1.293,0,12.021-3.129,13.585-3.688
				C96.024,309.083,95.528,303.495,93.326,303.977z"/>
			<path style="fill:#FACFC9;" d="M119.153,310.537l0.544-1.964c0,0-1.325-1.328-1.325-1.825s0.662-3.064,1.325-3.064
				c0.662,0,3.726-1.739,4.306-0.414c0.58,1.325,0,1.325,0,1.325s1.012,1.242,0.258,2.153c0,0-0.092,1.332-0.341,1.825
				c-0.248,0.493-1.739,0.825-1.739,0.825l-0.524,1.719C121.658,311.117,119.609,312.69,119.153,310.537z"/>
			<g>
				<g>
					<path style="fill:#174859;" d="M121.456,304.636L121.456,304.636c-0.353,0-0.642-0.289-0.642-0.643v-5.162
						c0-0.353,0.289-0.642,0.642-0.642l0,0c0.353,0,0.643,0.289,0.643,0.642v5.162C122.099,304.347,121.81,304.636,121.456,304.636z
						"/>
					<circle style="fill:#174859;" cx="121.456" cy="298.468" r="3.436"/>
				</g>
				<circle style="fill:#C6E6FD;" cx="121.456" cy="298.468" r="2.43"/>
			</g>
		</g>
		<g>
			<g>
				<path style="fill:#E0A880;" d="M350.838,311.928c0,0,2.269,8.966,4.558,10.423c2.289,1.457,10.179-3.775,10.179-3.775
					s0.381-2.732,1.109-3.096c0.729-0.364,1.912,0.729,1.912,0.729s4.098-3.096,5.191-3.187c1.093-0.091-2.14,3.005-2.14,3.005
					s0.136,2.958-0.957,3.755c-1.093,0.798-3.825,1.253-3.825,1.253s-6.752,6.967-11.566,6.694
					c-4.814-0.273-11.201-12.066-11.201-12.066S347.378,310.653,350.838,311.928z"/>
				<path style="fill:#F8C29C;" d="M362.368,363.327l1.434,3.137l3.943-0.986l-3.226-4.481
					C364.519,360.997,360.934,360.19,362.368,363.327z"/>
				<path style="fill:#E8A423;" d="M342.057,330.579c0,0,11.794,2.95,15.993,9.201c4.198,6.251,9.292,21.904,9.292,21.904
					l-5.976,3.226l-10.397-18.907l-13.719-7.644C337.251,338.358,337.956,329.26,342.057,330.579z"/>
				<polygon style="fill:#FFFFFF;" points="365.001,317.682 364.141,321.632 372.603,316.321 373.289,312.442 				"/>
				<path style="fill:#E03D5B;" d="M342.654,309.633c0,0,3.57-4.925,6.545-2.562c2.975,2.363,3.967,6.429,3.967,6.429l-7.239,5.256
					C345.926,318.756,341.761,317.764,342.654,309.633z"/>
				<path style="fill:#F8C29C;" d="M347.348,302.563c0,0,2.045-0.1,2.177-1.527s0.908-9.053,8.846-7.622
					c5.727,1.032,5.769,6.345,5.769,7.667c0,1.322-1.984,6.229-1.72,7.346c0.264,1.117-2.116,0-2.116,0s-2.416,3.172-3.209,3.388
					c-0.793,0.216-4.8-2.598-4.926-4.009c-0.213-2.374-2.512,1.203-3.57,0.866C347.542,308.335,345.7,304.724,347.348,302.563z"/>
				<path style="fill:#FF5D7B;" d="M347.348,302.563c0,0-14.432,0.79-17.208,14.826c-2.777,14.036,0,22.551,0,22.551
					s8.462,0.553,12.429-0.715c3.967-1.268-2.432-11.239,5.105-18.379C353.684,315.152,347.348,302.563,347.348,302.563z"/>
				<path style="fill:#F8C29C;" d="M348.878,314.698c0,0,2.269,8.966,4.558,10.423c2.289,1.457,10.178-3.775,10.178-3.775
					s0.38-2.732,1.109-3.096c0.729-0.364,1.912,0.728,1.912,0.728s4.098-3.096,5.191-3.187c1.093-0.091-2.14,3.005-2.14,3.005
					s0.136,2.958-0.957,3.756c-1.093,0.798-3.825,1.253-3.825,1.253s-6.752,6.967-11.566,6.694
					c-4.814-0.273-11.201-12.067-11.201-12.067S345.417,313.423,348.878,314.698z"/>
				<path style="fill:#E03D5B;" d="M338.966,311.095c0,0,3.57-4.925,6.545-2.562c2.975,2.364,3.967,6.429,3.967,6.429l-7.239,5.256
					C342.238,320.219,338.073,319.227,338.966,311.095z"/>
				<path style="fill:#F8C29C;" d="M355.993,366.214l1.434,3.137l3.943-0.986l-3.226-4.481
					C358.144,363.884,354.559,363.077,355.993,366.214z"/>
				<path style="fill:#F4C43E;" d="M335.683,333.466c0,0,11.794,2.95,15.992,9.201c4.198,6.251,9.292,21.904,9.292,21.904
					l-5.976,3.226l-10.396-18.907l-13.719-7.644c0,0-1.602-1.966-1.158-3.722C330.335,335.082,333.297,332.699,335.683,333.466z"/>
				<path style="fill:#164454;" d="M356.905,368.783c0,0,2.688,0.206,4.466-0.875c0,0,7.088,4.156,8.615,4.738
					c1.528,0.582,1.382,2.473,0,2.546c-1.382,0.073-12.487-1.018-13.081-1.673C356.311,372.864,356.043,369.503,356.905,368.783z"/>
				<path style="fill:#164454;" d="M363.143,365.164c0,0,2.688,0.206,4.466-0.875c0,0,7.088,4.156,8.615,4.738
					c1.527,0.582,1.382,2.473,0,2.546c-1.382,0.073-12.488-1.018-13.081-1.673C362.55,369.246,362.283,365.884,363.143,365.164z"/>
				<path style="fill:#164454;" d="M348.837,302.106c0,0-0.964,0.814-0.382-2.584c0.582-3.398,3.492-7.253,4.292-7.18
					c0,0-1.629-0.769-0.742-1.075c0.887-0.307,1.833,0.244,1.833,0.244s1.811-1.688,2.193-0.954
					c0.382,0.734-0.615,1.264-0.615,1.264s2.714-1.3,4.896,0.885c2.182,2.184,5.092,2.982,5.092,2.982s2.13-0.362,2.328,1.891
					c0.198,2.253-1.818,1.307-1.818,1.307s2.982,1.808,0.946,3.306c-2.037,1.497-2.837,0.939-4.437,0.454
					c-1.6-0.484-2.037-1.417-2.837-1.569c-0.8-0.152-2.488,0.003-2.488,0.003s-1.048,2.755-1.68,2.609
					c-0.632-0.145-1.214-0.28-0.85-1.158c0.364-0.878,1.192-2.115,0.85-2.697s-2.915-0.529-3.119,1.736
					c-0.204,2.265-2.233,3.287-2.819,2.849C348.891,303.98,348.837,302.106,348.837,302.106z"/>
			</g>
		</g>
	</g>
</g>
<g id="DESIGNED_BY_FREEPIK">
	<g>
		<g id="XMLID_319_">
			<g id="XMLID_338_">
				<path id="XMLID_346_" style="fill:#1D262D;" d="M260.104,475.233c-0.432,0.443-0.803,0.931-1.108,1.453l-0.465-0.241
					c-0.067-0.298-0.349-0.503-0.659-0.466c-0.331,0.039-0.568,0.339-0.529,0.67c0.039,0.331,0.339,0.568,0.67,0.529
					c0.066-0.008,0.127-0.026,0.184-0.052l0.451,0.234c-0.251,0.554-0.433,1.139-0.539,1.744l0.747,0.132
					c0.23-1.306,0.85-2.507,1.792-3.472L260.104,475.233z"/>
				<path id="XMLID_345_" style="fill:#1D262D;" d="M265.592,472.931c-0.171,0-0.341,0.006-0.51,0.017l-0.074-0.626
					c0.188-0.149,0.296-0.389,0.266-0.645c-0.046-0.393-0.402-0.674-0.795-0.628c-0.393,0.046-0.674,0.402-0.628,0.795
					c0.03,0.254,0.189,0.461,0.404,0.564l0.074,0.624c-0.714,0.116-1.403,0.332-2.06,0.646l0.327,0.684
					c0.934-0.447,1.942-0.673,2.995-0.673c0.496,0,0.993,0.053,1.475,0.158l0.161-0.741
					C266.692,472.99,266.142,472.931,265.592,472.931z"/>
				<path id="XMLID_344_" style="fill:#1D262D;" d="M272.194,475.478c0.331-0.04,0.566-0.341,0.526-0.672
					c-0.04-0.331-0.341-0.566-0.672-0.526c-0.309,0.038-0.535,0.304-0.53,0.609l-0.416,0.363c-0.418-0.43-0.889-0.813-1.408-1.139
					l-0.404,0.641c1.134,0.715,2.021,1.726,2.563,2.925l0.69-0.313c-0.251-0.554-0.567-1.072-0.942-1.545l0.402-0.351
					C272.065,475.483,272.129,475.487,272.194,475.478z"/>
				<path id="XMLID_343_" style="fill:#1D262D;" d="M265.044,483.14c-0.386,0.023-0.775,0.035-1.157,0.035
					c-0.88,0-1.733-0.061-2.478-0.179c-0.39-0.062-0.846-0.155-1.27-0.292c1.046,1.861,3.069,3.125,5.388,3.125
					c2.855,0,5.262-1.916,5.95-4.504c-0.682,0.449-1.505,0.825-2.459,1.123C267.839,482.815,266.463,483.054,265.044,483.14z"/>
				<path id="XMLID_339_" style="fill:#1D262D;" d="M265.592,474.447c-3.352,0-6.08,2.666-6.08,5.944
					c0,0.426,0.046,0.849,0.137,1.261c0.673,0.483,2.706,0.89,5.348,0.731c2.879-0.173,5.297-0.957,6.672-2.158
					c-0.006-0.195-0.021-0.39-0.045-0.582C271.244,476.681,268.65,474.447,265.592,474.447z M263.432,480.962
					c-1.02,0-1.85-0.83-1.85-1.85c0-1.02,0.83-1.85,1.85-1.85c1.02,0,1.85,0.83,1.85,1.85
					C265.282,480.132,264.452,480.962,263.432,480.962z M268.17,480.054c-0.75,0-1.36-0.61-1.36-1.36s0.61-1.361,1.36-1.361
					c0.75,0,1.361,0.61,1.361,1.361S268.92,480.054,268.17,480.054z"/>
			</g>
			<path id="XMLID_336_" style="fill:#1D262D;" d="M281.595,476.315c-0.295-0.116-0.805-0.309-1.382-0.237
				c-0.551,0.068-0.844,0.34-0.844,1.007v0.866h2.228v1.717h-2.228v5.455h-1.932v-5.455h-1.34v-1.717h1.34v-0.888
				c0-1.68,0.896-2.783,2.568-2.783c0.643,0,1.157,0.122,1.59,0.308L281.595,476.315z"/>
			<path id="XMLID_334_" style="fill:#1D262D;" d="M286.298,479.647c-0.177-0.03-0.358-0.046-0.526-0.046
				c-0.896,0-1.51,0.548-1.51,1.613v3.908h-1.932v-7.172h1.873v0.785c0.451-0.674,1.14-0.977,2.021-0.977
				c0.414,0,0.848,0.128,1.094,0.337L286.298,479.647z"/>
			<path id="XMLID_331_" style="fill:#1D262D;" d="M293.965,481.525c0,0.222-0.015,0.489-0.037,0.651h-5.085
				c0.207,1.036,0.933,1.488,1.843,1.488c0.622,0,1.295-0.252,1.813-0.688l1.133,1.243c-0.814,0.748-1.85,1.088-3.057,1.088
				c-2.198,0-3.723-1.495-3.723-3.753c0-2.257,1.48-3.797,3.627-3.797C292.544,477.757,293.958,479.289,293.965,481.525z
				 M288.851,480.858h3.175c-0.177-0.918-0.733-1.436-1.562-1.436C289.554,479.423,289.021,479.97,288.851,480.858z"/>
			<path id="XMLID_328_" style="fill:#1D262D;" d="M301.618,481.525c0,0.222-0.015,0.489-0.037,0.651h-5.085
				c0.207,1.036,0.933,1.488,1.843,1.488c0.622,0,1.295-0.252,1.814-0.688l1.132,1.243c-0.814,0.748-1.85,1.088-3.057,1.088
				c-2.198,0-3.723-1.495-3.723-3.753c0-2.257,1.48-3.797,3.627-3.797C300.197,477.757,301.611,479.289,301.618,481.525z
				 M296.504,480.858h3.175c-0.178-0.918-0.733-1.436-1.562-1.436C297.207,479.423,296.674,479.97,296.504,480.858z"/>
			<path id="XMLID_325_" style="fill:#1D262D;" d="M309.964,481.532c0,2.154-1.495,3.775-3.471,3.775
				c-0.962,0-1.643-0.378-2.109-0.933v3.708h-1.924V477.95h1.887v0.792c0.466-0.585,1.155-0.984,2.139-0.984
				C308.469,477.757,309.964,479.378,309.964,481.532z M304.287,481.532c0,1.132,0.748,1.976,1.843,1.976
				c1.14,0,1.85-0.881,1.85-1.976c0-1.095-0.71-1.976-1.85-1.976C305.035,479.556,304.287,480.4,304.287,481.532z"/>
			<path id="XMLID_322_" style="fill:#1D262D;" d="M313.068,475.603c0,0.696-0.54,1.229-1.236,1.229
				c-0.696,0-1.229-0.533-1.229-1.229c0-0.696,0.533-1.243,1.229-1.243C312.527,474.36,313.068,474.908,313.068,475.603z
				 M312.809,485.122h-1.932v-7.172h1.932V485.122z"/>
			<path id="XMLID_320_" style="fill:#1D262D;" d="M316.032,480.503l2.701-2.554h2.368l-3.479,3.375l3.501,3.797h-2.376
				l-2.716-2.901v2.901H314.1v-10.658h1.932V480.503z"/>
		</g>
		<g>
			<path style="fill:#1D262D;" d="M184.412,485.057v-1.055c-0.527,0.718-1.391,1.23-2.387,1.23c-1.846,0-3.149-1.406-3.149-3.706
				c0-2.256,1.289-3.721,3.149-3.721c0.952,0,1.816,0.469,2.387,1.245v-3.765h1.099v9.77H184.412z M184.412,483.138v-3.208
				c-0.395-0.615-1.245-1.143-2.124-1.143c-1.421,0-2.27,1.172-2.27,2.739c0,1.567,0.85,2.724,2.27,2.724
				C183.168,484.251,184.017,483.753,184.412,483.138z"/>
			<path style="fill:#1D262D;" d="M186.932,481.512c0-2.051,1.465-3.706,3.486-3.706c2.139,0,3.398,1.67,3.398,3.794v0.279h-5.727
				c0.088,1.333,1.025,2.446,2.549,2.446c0.805,0,1.626-0.322,2.182-0.893l0.527,0.718c-0.703,0.703-1.655,1.084-2.812,1.084
				C188.44,485.233,186.932,483.724,186.932,481.512z M190.403,478.714c-1.509,0-2.256,1.274-2.314,2.358h4.643
				C192.718,480.018,192.015,478.714,190.403,478.714z"/>
			<path style="fill:#1D262D;" d="M194.607,484.119l0.571-0.791c0.469,0.542,1.362,1.011,2.329,1.011c1.084,0,1.67-0.513,1.67-1.216
				c0-1.714-4.38-0.659-4.38-3.281c0-1.098,0.952-2.036,2.636-2.036c1.201,0,2.051,0.454,2.622,1.026l-0.513,0.762
				c-0.424-0.513-1.201-0.894-2.109-0.894c-0.967,0-1.567,0.483-1.567,1.113c0,1.552,4.38,0.527,4.38,3.281
				c0,1.187-0.952,2.139-2.783,2.139C196.306,485.233,195.325,484.881,194.607,484.119z"/>
			<path style="fill:#1D262D;" d="M201.477,476.239c0-0.41,0.337-0.747,0.732-0.747c0.41,0,0.747,0.337,0.747,0.747
				c0,0.41-0.337,0.732-0.747,0.732C201.814,476.971,201.477,476.649,201.477,476.239z M201.667,485.057v-7.075h1.099v7.075H201.667
				z"/>
			<path style="fill:#1D262D;" d="M204.582,486.873l0.556-0.82c0.586,0.703,1.289,0.967,2.3,0.967c1.172,0,2.27-0.571,2.27-2.124
				v-1.011c-0.513,0.718-1.377,1.26-2.373,1.26c-1.845,0-3.149-1.377-3.149-3.662c0-2.27,1.289-3.677,3.149-3.677
				c0.952,0,1.802,0.469,2.373,1.245v-1.069h1.098v6.87c0,2.344-1.641,3.076-3.369,3.076
				C206.237,487.928,205.417,487.693,204.582,486.873z M209.709,483.021v-3.091c-0.381-0.615-1.23-1.143-2.109-1.143
				c-1.421,0-2.27,1.128-2.27,2.695c0,1.553,0.849,2.695,2.27,2.695C208.478,484.178,209.328,483.636,209.709,483.021z"/>
			<path style="fill:#1D262D;" d="M217.413,485.057v-4.629c0-1.245-0.63-1.64-1.582-1.64c-0.865,0-1.685,0.527-2.095,1.099v5.17
				h-1.099v-7.075h1.099v1.025c0.498-0.586,1.464-1.201,2.519-1.201c1.48,0,2.256,0.747,2.256,2.285v4.966H217.413z"/>
			<path style="fill:#1D262D;" d="M219.932,481.512c0-2.051,1.465-3.706,3.486-3.706c2.139,0,3.398,1.67,3.398,3.794v0.279h-5.727
				c0.088,1.333,1.025,2.446,2.549,2.446c0.806,0,1.626-0.322,2.183-0.893l0.527,0.718c-0.703,0.703-1.655,1.084-2.812,1.084
				C221.441,485.233,219.932,483.724,219.932,481.512z M223.404,478.714c-1.509,0-2.256,1.274-2.314,2.358h4.643
				C225.718,480.018,225.015,478.714,223.404,478.714z"/>
			<path style="fill:#1D262D;" d="M233.35,485.057v-1.055c-0.527,0.718-1.392,1.23-2.388,1.23c-1.846,0-3.149-1.406-3.149-3.706
				c0-2.256,1.289-3.721,3.149-3.721c0.952,0,1.817,0.469,2.388,1.245v-3.765h1.098v9.77H233.35z M233.35,483.138v-3.208
				c-0.396-0.615-1.245-1.143-2.124-1.143c-1.421,0-2.27,1.172-2.27,2.739c0,1.567,0.849,2.724,2.27,2.724
				C232.105,484.251,232.954,483.753,233.35,483.138z"/>
			<path style="fill:#1D262D;" d="M239.692,485.057v-9.77h1.098v3.765c0.572-0.776,1.421-1.245,2.388-1.245
				c1.845,0,3.149,1.465,3.149,3.721c0,2.299-1.304,3.706-3.149,3.706c-0.996,0-1.86-0.513-2.388-1.23v1.055H239.692z
				 M242.9,484.251c1.436,0,2.285-1.157,2.285-2.724c0-1.568-0.85-2.739-2.285-2.739c-0.864,0-1.728,0.527-2.109,1.143v3.208
				C241.171,483.753,242.036,484.251,242.9,484.251z"/>
			<path style="fill:#1D262D;" d="M247.528,486.829c0.161,0.073,0.425,0.117,0.601,0.117c0.483,0,0.805-0.161,1.055-0.747
				l0.469-1.069l-2.959-7.148h1.187l2.358,5.801l2.344-5.801h1.201l-3.545,8.51c-0.425,1.025-1.143,1.421-2.08,1.435
				c-0.234,0-0.601-0.044-0.805-0.103L247.528,486.829z"/>
		</g>
	</g>
</g>
</svg>
